<mxfile host="app.diagrams.net" agent="Mozilla/5.0 (Windows NT 10.0; Win64; x64) AppleWebKit/537.36 (KHTML, like Gecko) Chrome/131.0.0.0 Safari/537.36" version="25.0.3">
  <diagram name="Page-1" id="v2_GC8DNR9_AIy9ZNO7_">
    <mxGraphModel dx="694" dy="379" grid="1" gridSize="10" guides="1" tooltips="1" connect="1" arrows="1" fold="1" page="1" pageScale="1" pageWidth="850" pageHeight="1100" math="0" shadow="0">
      <root>
        <mxCell id="0" />
        <mxCell id="1" parent="0" />
        <mxCell id="LCPFL02DWOrMatiKx--p-9" value="" style="edgeStyle=orthogonalEdgeStyle;rounded=0;orthogonalLoop=1;jettySize=auto;html=1;" parent="1" source="LCPFL02DWOrMatiKx--p-1" target="LCPFL02DWOrMatiKx--p-8" edge="1">
          <mxGeometry relative="1" as="geometry" />
        </mxCell>
        <mxCell id="LCPFL02DWOrMatiKx--p-1" value="&lt;font style=&quot;font-size: 12px;&quot;&gt;&lt;b&gt;Initialization&lt;/b&gt;&lt;/font&gt;&lt;div&gt;&lt;br&gt;&lt;/div&gt;&lt;div style=&quot;text-align: left;&quot;&gt;&lt;ul&gt;&lt;li&gt;Start the bot and connect to Solana RPC node/s.&lt;/li&gt;&lt;/ul&gt;&lt;/div&gt;" style="rounded=1;whiteSpace=wrap;html=1;fontSize=10;" parent="1" vertex="1">
          <mxGeometry x="650.03" y="230" width="240" height="100" as="geometry" />
        </mxCell>
        <mxCell id="LCPFL02DWOrMatiKx--p-4" style="edgeStyle=orthogonalEdgeStyle;rounded=0;orthogonalLoop=1;jettySize=auto;html=1;exitX=1;exitY=0.5;exitDx=0;exitDy=0;entryX=0.5;entryY=0;entryDx=0;entryDy=0;" parent="1" source="LCPFL02DWOrMatiKx--p-3" target="LCPFL02DWOrMatiKx--p-1" edge="1">
          <mxGeometry relative="1" as="geometry" />
        </mxCell>
        <mxCell id="LCPFL02DWOrMatiKx--p-46" value="YES" style="edgeLabel;html=1;align=center;verticalAlign=middle;resizable=0;points=[];" parent="LCPFL02DWOrMatiKx--p-4" vertex="1" connectable="0">
          <mxGeometry x="-0.4768" relative="1" as="geometry">
            <mxPoint as="offset" />
          </mxGeometry>
        </mxCell>
        <mxCell id="LCPFL02DWOrMatiKx--p-7" style="edgeStyle=orthogonalEdgeStyle;rounded=0;orthogonalLoop=1;jettySize=auto;html=1;exitX=0;exitY=0.5;exitDx=0;exitDy=0;entryX=0;entryY=0.5;entryDx=0;entryDy=0;" parent="1" source="LCPFL02DWOrMatiKx--p-3" target="LCPFL02DWOrMatiKx--p-5" edge="1">
          <mxGeometry relative="1" as="geometry">
            <Array as="points">
              <mxPoint x="310.03" y="180" />
              <mxPoint x="310.03" y="55" />
            </Array>
          </mxGeometry>
        </mxCell>
        <mxCell id="gg1vLStC35sXTEBxG7NT-3" value="NO" style="edgeLabel;html=1;align=center;verticalAlign=middle;resizable=0;points=[];" vertex="1" connectable="0" parent="LCPFL02DWOrMatiKx--p-7">
          <mxGeometry x="-0.7458" y="3" relative="1" as="geometry">
            <mxPoint y="-3" as="offset" />
          </mxGeometry>
        </mxCell>
        <mxCell id="LCPFL02DWOrMatiKx--p-3" value="Settings /&amp;nbsp;&lt;span&gt;&lt;/span&gt;&lt;span&gt;&lt;/span&gt;&lt;span style=&quot;white-space-collapse: preserve;&quot;&gt;Run the Bot &lt;/span&gt;&lt;div&gt;&lt;span style=&quot;white-space-collapse: preserve;&quot;&gt;is &lt;/span&gt;&lt;span style=&quot;background-color: initial;&quot;&gt;ON?&lt;/span&gt;&lt;/div&gt;" style="rhombus;whiteSpace=wrap;html=1;" parent="1" vertex="1">
          <mxGeometry x="370.03" y="130" width="200" height="100" as="geometry" />
        </mxCell>
        <mxCell id="LCPFL02DWOrMatiKx--p-6" style="edgeStyle=orthogonalEdgeStyle;rounded=0;orthogonalLoop=1;jettySize=auto;html=1;exitX=0.5;exitY=1;exitDx=0;exitDy=0;entryX=0.5;entryY=0;entryDx=0;entryDy=0;" parent="1" source="LCPFL02DWOrMatiKx--p-5" target="LCPFL02DWOrMatiKx--p-3" edge="1">
          <mxGeometry relative="1" as="geometry" />
        </mxCell>
        <mxCell id="LCPFL02DWOrMatiKx--p-5" value="Start" style="ellipse;whiteSpace=wrap;html=1;" parent="1" vertex="1">
          <mxGeometry x="410.03" y="30" width="120" height="50" as="geometry" />
        </mxCell>
        <mxCell id="LCPFL02DWOrMatiKx--p-12" value="" style="edgeStyle=orthogonalEdgeStyle;rounded=0;orthogonalLoop=1;jettySize=auto;html=1;" parent="1" source="LCPFL02DWOrMatiKx--p-8" target="LCPFL02DWOrMatiKx--p-10" edge="1">
          <mxGeometry relative="1" as="geometry" />
        </mxCell>
        <mxCell id="LCPFL02DWOrMatiKx--p-8" value="&lt;b&gt;Monitoring Meme Coins&lt;/b&gt;:&lt;div&gt;&lt;br&gt;&lt;/div&gt;&lt;div&gt;&lt;ul&gt;&lt;li style=&quot;text-align: left;&quot;&gt;Realtime scan all active meme coins listed on Pump.fun&lt;/li&gt;&lt;li style=&quot;text-align: left;&quot;&gt;Realtime track events related to changes in coin statuses.&lt;/li&gt;&lt;/ul&gt;&lt;/div&gt;&lt;div&gt;&lt;ul&gt;&lt;ul&gt;&lt;li style=&quot;text-align: left;&quot;&gt;Token liquidity&lt;/li&gt;&lt;li style=&quot;text-align: left;&quot;&gt;&lt;span style=&quot;background-color: initial; text-align: center;&quot;&gt;Number of active holders and token distribution etc. see&amp;nbsp;&lt;/span&gt;&lt;span style=&quot;background-color: initial; text-align: center;&quot;&gt;full list in Figma&lt;/span&gt;&lt;/li&gt;&lt;/ul&gt;&lt;/ul&gt;&lt;/div&gt;" style="rounded=1;whiteSpace=wrap;html=1;" parent="1" vertex="1">
          <mxGeometry x="645.03" y="410" width="249.97" height="200" as="geometry" />
        </mxCell>
        <mxCell id="LCPFL02DWOrMatiKx--p-13" value="" style="edgeStyle=orthogonalEdgeStyle;rounded=0;orthogonalLoop=1;jettySize=auto;html=1;" parent="1" source="LCPFL02DWOrMatiKx--p-10" target="LCPFL02DWOrMatiKx--p-11" edge="1">
          <mxGeometry relative="1" as="geometry" />
        </mxCell>
        <mxCell id="LCPFL02DWOrMatiKx--p-10" value="&lt;b&gt;Realtime&amp;nbsp;Analysis and Decision Making&lt;/b&gt;&lt;b style=&quot;background-color: initial;&quot;&gt;:&lt;/b&gt;&lt;div&gt;&lt;div&gt;&lt;span style=&quot;background-color: initial;&quot;&gt;&lt;br&gt;&lt;/span&gt;&lt;/div&gt;&lt;div&gt;&lt;div&gt;all parameters in Figma:&lt;/div&gt;&lt;div&gt;Settings / Buy and Degen audit&lt;/div&gt;&lt;/div&gt;&lt;/div&gt;" style="rounded=1;whiteSpace=wrap;html=1;" parent="1" vertex="1">
          <mxGeometry x="650.03" y="680" width="240" height="120" as="geometry" />
        </mxCell>
        <mxCell id="LCPFL02DWOrMatiKx--p-15" style="edgeStyle=orthogonalEdgeStyle;rounded=0;orthogonalLoop=1;jettySize=auto;html=1;exitX=0;exitY=0.5;exitDx=0;exitDy=0;entryX=0;entryY=0.5;entryDx=0;entryDy=0;" parent="1" source="LCPFL02DWOrMatiKx--p-11" target="LCPFL02DWOrMatiKx--p-10" edge="1">
          <mxGeometry relative="1" as="geometry">
            <Array as="points">
              <mxPoint x="510" y="940" />
              <mxPoint x="510" y="740" />
            </Array>
          </mxGeometry>
        </mxCell>
        <mxCell id="gg1vLStC35sXTEBxG7NT-1" value="NO" style="edgeLabel;html=1;align=center;verticalAlign=middle;resizable=0;points=[];" vertex="1" connectable="0" parent="LCPFL02DWOrMatiKx--p-15">
          <mxGeometry x="-0.5057" relative="1" as="geometry">
            <mxPoint as="offset" />
          </mxGeometry>
        </mxCell>
        <mxCell id="LCPFL02DWOrMatiKx--p-16" style="edgeStyle=orthogonalEdgeStyle;rounded=0;orthogonalLoop=1;jettySize=auto;html=1;exitX=1;exitY=0.5;exitDx=0;exitDy=0;entryX=0.5;entryY=0;entryDx=0;entryDy=0;" parent="1" source="LCPFL02DWOrMatiKx--p-11" target="LCPFL02DWOrMatiKx--p-14" edge="1">
          <mxGeometry relative="1" as="geometry" />
        </mxCell>
        <mxCell id="gg1vLStC35sXTEBxG7NT-2" value="YES" style="edgeLabel;html=1;align=center;verticalAlign=middle;resizable=0;points=[];" vertex="1" connectable="0" parent="LCPFL02DWOrMatiKx--p-16">
          <mxGeometry x="-0.2973" y="-1" relative="1" as="geometry">
            <mxPoint as="offset" />
          </mxGeometry>
        </mxCell>
        <mxCell id="LCPFL02DWOrMatiKx--p-11" value="Are the purchase&amp;nbsp;&lt;div&gt;conditions met?&lt;/div&gt;" style="rhombus;whiteSpace=wrap;html=1;" parent="1" vertex="1">
          <mxGeometry x="670.03" y="890" width="200" height="100" as="geometry" />
        </mxCell>
        <mxCell id="LCPFL02DWOrMatiKx--p-18" value="" style="edgeStyle=orthogonalEdgeStyle;rounded=0;orthogonalLoop=1;jettySize=auto;html=1;" parent="1" source="LCPFL02DWOrMatiKx--p-14" target="LCPFL02DWOrMatiKx--p-17" edge="1">
          <mxGeometry relative="1" as="geometry" />
        </mxCell>
        <mxCell id="LCPFL02DWOrMatiKx--p-14" value="&lt;p&gt;&lt;strong&gt;Buy&lt;/strong&gt;:&lt;/p&gt;&lt;ul&gt;&lt;li style=&quot;text-align: left;&quot;&gt;Create a transaction to buy tokens via smart contracts (pump.fun, Raydium) (automatically by the provided wallet PK).&lt;br&gt;&lt;br&gt;&lt;/li&gt;&lt;li style=&quot;text-align: left;&quot;&gt;Secure purchased tokens in the userâ€™s wallet.&lt;/li&gt;&lt;/ul&gt;" style="rounded=1;whiteSpace=wrap;html=1;" parent="1" vertex="1">
          <mxGeometry x="910.03" y="990" width="240" height="180" as="geometry" />
        </mxCell>
        <mxCell id="LCPFL02DWOrMatiKx--p-25" value="" style="edgeStyle=orthogonalEdgeStyle;rounded=0;orthogonalLoop=1;jettySize=auto;html=1;" parent="1" source="LCPFL02DWOrMatiKx--p-17" target="LCPFL02DWOrMatiKx--p-20" edge="1">
          <mxGeometry relative="1" as="geometry" />
        </mxCell>
        <mxCell id="LCPFL02DWOrMatiKx--p-17" value="&lt;p&gt;&lt;span style=&quot;background-color: initial;&quot;&gt;&lt;b&gt;Post-Purchase Monitoring&lt;/b&gt;&lt;/span&gt;:&lt;/p&gt;&lt;ul&gt;&lt;li&gt;&lt;div style=&quot;text-align: left;&quot;&gt;&lt;span style=&quot;background-color: initial;&quot;&gt;Continuously monitor market data:&lt;ul&gt;&lt;li&gt;Token price.&lt;/li&gt;&lt;li&gt;Trading volumes.&lt;/li&gt;&lt;li&gt;New on-chain/off-chain events.&lt;/li&gt;&lt;/ul&gt;&lt;/span&gt;&lt;/div&gt;&lt;/li&gt;&lt;/ul&gt;&lt;span style=&quot;background-color: initial;&quot;&gt;&lt;span style=&quot;background-color: initial;&quot;&gt;All parameters in Figma:&amp;nbsp;&lt;/span&gt;Setings / Sell&amp;nbsp;&lt;/span&gt;&lt;span style=&quot;background-color: initial;&quot;&gt;&amp;nbsp;&lt;/span&gt;" style="rounded=1;whiteSpace=wrap;html=1;" parent="1" vertex="1">
          <mxGeometry x="910.03" y="1230" width="240" height="180" as="geometry" />
        </mxCell>
        <mxCell id="LCPFL02DWOrMatiKx--p-22" style="edgeStyle=orthogonalEdgeStyle;rounded=0;orthogonalLoop=1;jettySize=auto;html=1;exitX=1;exitY=0.5;exitDx=0;exitDy=0;entryX=0.5;entryY=0;entryDx=0;entryDy=0;" parent="1" source="LCPFL02DWOrMatiKx--p-20" target="LCPFL02DWOrMatiKx--p-21" edge="1">
          <mxGeometry relative="1" as="geometry" />
        </mxCell>
        <mxCell id="LCPFL02DWOrMatiKx--p-27" value="YES" style="edgeLabel;html=1;align=center;verticalAlign=middle;resizable=0;points=[];" parent="LCPFL02DWOrMatiKx--p-22" vertex="1" connectable="0">
          <mxGeometry x="-0.1057" y="-1" relative="1" as="geometry">
            <mxPoint as="offset" />
          </mxGeometry>
        </mxCell>
        <mxCell id="LCPFL02DWOrMatiKx--p-24" style="edgeStyle=orthogonalEdgeStyle;rounded=0;orthogonalLoop=1;jettySize=auto;html=1;exitX=0;exitY=0.5;exitDx=0;exitDy=0;entryX=0.5;entryY=0;entryDx=0;entryDy=0;" parent="1" source="LCPFL02DWOrMatiKx--p-20" target="LCPFL02DWOrMatiKx--p-23" edge="1">
          <mxGeometry relative="1" as="geometry" />
        </mxCell>
        <mxCell id="LCPFL02DWOrMatiKx--p-26" value="NO" style="edgeLabel;html=1;align=center;verticalAlign=middle;resizable=0;points=[];" parent="LCPFL02DWOrMatiKx--p-24" vertex="1" connectable="0">
          <mxGeometry x="-0.3732" y="2" relative="1" as="geometry">
            <mxPoint as="offset" />
          </mxGeometry>
        </mxCell>
        <mxCell id="LCPFL02DWOrMatiKx--p-20" value="&lt;div&gt;MC &amp;gt; Stop sell MC&lt;/div&gt;&lt;div&gt;&lt;font style=&quot;font-size: 8px;&quot;&gt;value from,&amp;nbsp;&lt;/font&gt;&lt;span style=&quot;font-size: 8px; background-color: initial;&quot;&gt;Settings / Sell /&lt;/span&gt;&lt;/div&gt;&lt;div&gt;&lt;font style=&quot;font-size: 8px;&quot;&gt;&quot;Stop sell market cap&quot;&lt;/font&gt;&lt;/div&gt;" style="rhombus;whiteSpace=wrap;html=1;" parent="1" vertex="1">
          <mxGeometry x="930.03" y="1480" width="200" height="100" as="geometry" />
        </mxCell>
        <mxCell id="LCPFL02DWOrMatiKx--p-21" value="&lt;p&gt;&lt;span style=&quot;background-color: initial;&quot;&gt;&lt;b&gt;Manual sale on Radium&lt;/b&gt;&lt;/span&gt;&lt;/p&gt;&lt;p&gt;(later we will add automatic sale)&lt;/p&gt;&lt;p&gt;assign the token the status &quot;&lt;font color=&quot;#ffffff&quot; style=&quot;background-color: rgb(169, 132, 33);&quot;&gt;Radium&lt;/font&gt;&quot;&lt;/p&gt;&lt;p&gt;see Figma - Assets&lt;/p&gt;" style="rounded=1;whiteSpace=wrap;html=1;verticalAlign=top;" parent="1" vertex="1">
          <mxGeometry x="1150.03" y="1600" width="240" height="200" as="geometry" />
        </mxCell>
        <mxCell id="LCPFL02DWOrMatiKx--p-36" style="edgeStyle=orthogonalEdgeStyle;rounded=0;orthogonalLoop=1;jettySize=auto;html=1;exitX=1;exitY=0.5;exitDx=0;exitDy=0;entryX=0.5;entryY=0;entryDx=0;entryDy=0;" parent="1" source="LCPFL02DWOrMatiKx--p-23" target="LCPFL02DWOrMatiKx--p-35" edge="1">
          <mxGeometry relative="1" as="geometry" />
        </mxCell>
        <mxCell id="LCPFL02DWOrMatiKx--p-42" value="YES" style="edgeLabel;html=1;align=center;verticalAlign=middle;resizable=0;points=[];" parent="LCPFL02DWOrMatiKx--p-36" vertex="1" connectable="0">
          <mxGeometry x="-0.5235" y="1" relative="1" as="geometry">
            <mxPoint as="offset" />
          </mxGeometry>
        </mxCell>
        <mxCell id="LCPFL02DWOrMatiKx--p-40" style="edgeStyle=orthogonalEdgeStyle;rounded=0;orthogonalLoop=1;jettySize=auto;html=1;exitX=0;exitY=0.5;exitDx=0;exitDy=0;entryX=0.5;entryY=1;entryDx=0;entryDy=0;" parent="1" source="LCPFL02DWOrMatiKx--p-23" target="LCPFL02DWOrMatiKx--p-31" edge="1">
          <mxGeometry relative="1" as="geometry" />
        </mxCell>
        <mxCell id="LCPFL02DWOrMatiKx--p-41" value="NO" style="edgeLabel;html=1;align=center;verticalAlign=middle;resizable=0;points=[];" parent="LCPFL02DWOrMatiKx--p-40" vertex="1" connectable="0">
          <mxGeometry x="-0.6595" y="2" relative="1" as="geometry">
            <mxPoint as="offset" />
          </mxGeometry>
        </mxCell>
        <mxCell id="LCPFL02DWOrMatiKx--p-23" value="Sell conditions are met?&lt;div&gt;&lt;font style=&quot;font-size: 8px;&quot;&gt;see Figma / Settings / Sell&lt;/font&gt;&lt;/div&gt;" style="rhombus;whiteSpace=wrap;html=1;" parent="1" vertex="1">
          <mxGeometry x="610.03" y="1600" width="200" height="100" as="geometry" />
        </mxCell>
        <mxCell id="LCPFL02DWOrMatiKx--p-29" value="" style="shape=image;verticalLabelPosition=bottom;labelBackgroundColor=default;verticalAlign=top;aspect=fixed;imageAspect=0;image=data:image/png,iVBORw0KGgoAAAANSUhEUgAABPgAAAFtCAIAAAAVtkOaAAAgAElEQVR4Aey9fYwUV36ovX86u46V+xHWHzAMGM8HWyKMjT0UoDeDDd2vPU7MZhqDfTHuNrMJIKa962BE3Eq8O9i7vWhFFsc9N5gb2fT4Bm2u3vQQ2ysZu+9OLosW9xoFcRM1iEVmX3VfrXYlz9KSY8n/1PvO/PDPh1M9PT09Mz3VPU+pBaeqTp2Pp0/X1FPn1KkvOSyNQyAejxeLRc9YRkZGXNc1axAOh3O5nBHFKxaLiUTCjFMhnEgk9PBMJmPFTCaTZspmOBQKWZFlNZFISDR/amXjs3GhEeja1L5zdPn+6x366T9/d9em9rIc1j614pEjrfFC28NHWstGsDaufWrFnssrNOX91zsiJ1tXuZ1WtM2D42lqtD2XV2wetNNfs+Ueq5x7Lq/YsHe5lRSrEIAABCYjEIlE+IM4GZyZbP/aA23dB2+bx8/jR+8vfTrmeV7m529sPXp/2ZKk3hv0PO/V09+Rvb3fby99OnbuF6MauTD2UeHjj3T11fe+43le7NhDuqX+gXv7/9NMvpcFe+w999zTwhIMAl9asK2w4Soej8flD6Tnefl8vlAoyGoul9O6hMNhNeF8Pq/K6nlePB7XaGUDrutms1nNwvO8dDptxUylUmYEM1xWdM3yILoWTFYdx+na1K4iuvvyil3n7xbb3HN5hamjq9zOzYOtpmdWI7pdm9oltXihbdf5u/dcvkdWn3hrmQn/kSOtGm3n6HI1XtN1uza16/Zd5+82S7L2qRVmaoQhAAEIlCWgfxALhYJ1h7psfDZWT2DeRbf74G2932//4Bejcl1U+PijzM/feCTZbqpp4eObPLb74G3/+OEbnuf1fPtOiYboVv+NBzwmotsSmAXRDfiP5Yvi5fN5z/MKhYIqZTqdllNqNBqVeCMjI9aWUChUKpU8zzN9+ItEjZAem8lkNEFj/3hQ4uRyuZBvsWLKqqY5fpvT1z9c9hA2LigCkZM3JHPD3rul4g9/rp2myoqImv+aeycjJjq65/I9XZs6JM5jx29kp3aqMrz9rWWr3JUT7t3RP+Hb8UKbpixbzKQ27LnRC71zlE5d5UQAAhAoT8C0XP0jXj4qW6dPIAiiK7L6+NH73zhztPDxR57nXf/3sRd+9Ixs33r0fs/zPrg6+sL/2KWf9/91/JpNe4AR3el/8wE9AtENjOe2ILoB/ZH4iyUGm81mdZfrurJRu15l1VJKtU090B/QAcapVMq/V7dIF7FZBt3lD0ia2vNslcofny0LkIC46K4Pb1iuEJA+XnPj/usdO0eXbx5svf/rNwYYTym6q9xOEeO+k18MQl7ldkrH7GPHb2zsObBMoq3Z8oXWbth7Q2LFh1WG9Sgpp4r0AvziqDIEIFA9ASy3ela1xQyO6GoXbjz9J4WPP7r+72PSYfvMa5vkCs3/rw5ORnRr+/YDeBSi2xKYBdEN4A+kfJHk5GjpYjabzeVyyWTScRzXdTMTizVKWTt+y6c7sVUMNp/PV4jjOI70KleWYUlB/66rQlslr5wRexcIgbKu+MevjY9SvllQx/taZaizeOmUorv2qRuP5m7Yc5NFS9+sWrT28ZrA1Wxl9HLXpva+k619J1vXPnWPGe2Jt8f7h/dcvmmjGYEwBCAAAdd15U9nqVSKRCIAmQsC8yu6vd9vf+F/7Hrc92ju9976lud5L/zDeKeu9OieOHNUTdgfQHTnom3MS5qIbmA8lx7defkF1JSpuGgNfynlT2wFiQ2Hw2LRiUQimUyKPOdyOf8UVjIKOp1ODw0NZTKZbDabSCTC4bC/QsPDwzpcuayi+w9hywIkoJ5pPhBbgYMq6JSiq121OkpZkrXUejJZrUanped5+81P/FYoPLsgAIEFSEAnv5jsmaAFyGTWqzy/ojuZxJqi2/PtO62ppxDdWW8GwUkQ0UV0g9MaG6YksVhMjNHzvJGRkSr/ZGqHqt9ateY6zZV4rObieZ7Zeasjpc0Injc+q7N1l1rNWZ5Ekvj06CpwAkqga1OHTvK0c3R5z4GbponSaBqYddG1vFcz8g971l0S0CmsLJG2orEKAQgsZAJyz1fm15AhV+a/Ff4uL2RoNdR9fkW3++BtMg3Vd//pOdXX3u+3y5O6OiVVamIW5VffG9Q4qfcGz/1ilMmoavjGA34IotsSmIWhywH/sdxUvHg8ro+8imFW/jMZDoermYnKfGlQOp0eGBhIJBKakRq1Oa9VYmLJZDIiscVi0SyozPyskozomnAIWwS6No2P/hWxnBgJvKKC7gZEdHVctPXUrlU1ViEAgQVOQN+DIH8HrX+5/ztbzWPlvW0PHJjP1wup1pY+Hfvg6mhhbHwyqtKnY9/9p2+p1vZ8+07x4cLHH31wdVReR6RvG+o+eFsAhy6v2vkfZ+s7WlDpILotgVkQ3cb76SUSCRmNLH8y1SetmuhTsuZEzVYcWdWXBsmzvrIxFApJ+tZfYqvzVh8AVh8eGhqSu9eaV9l0dC8BCDiO03NguXSuivH2n7/bfL2QIgqC6OqrhvZcvkcmatbiEYAABCBgEkgmk6nJF2tCDfNAwtMisPLetjXfvFWVcr4CsWMPvXHm6D/+/I1//Pkb33vrW9pVa5bnhX/YJXHeOHNUp6GSCN9761umGMeObXr1ve9oh7CZSN3Czvb/MK0vgshCANENjOfyjG7D/ihjsZi/01VrU73lOo6jomu980B0ulAoaLL+gPqw+LYOWu7r69PIiK6iIFCZQNemjifeujENctmncGdddCs/o+vvsNUX/5qvGqpcKfZCAAIQgMCcElh5b5sT/Z266d8Cyej+/b/b9ujvzekX16yJI7qIbrO27bmqVzgcjk4sZgYqmVan63TneNShy5boynuJKouu4zimx8qMWbKl7L9WUc3qEF5oBFa5nWufWrH2qRVW5608tVt2NuPqRVdfEWTNuiz9xjrrct/Ei3zNV+Y6jqOvJrJkG8tdaE2U+kIAAg1BYOW9bR3bbwlCp24zOfCq/i8jurW1f0QX0a2t5Szco/RduK7rmhTk+Z9cLmdunO4cjzrNlTWMynrnUCKRyGQy+s5eyVG7cKVHF9E1vwjClQnoxMiWi4p87r/e4T+8etHVmNZ8ztZUyZsHx18RtP96hynb+giuWbBVbqccGy+0dW0qUzZ/adkCAQhAAAJ1ICCiu3r3V5rJM+e9Lit33ILo1tZ6EV1Et7aWs3CP0k5X8zFalUyzm1SVuPI8VRZK/5xV/sS1DPo4ruM4utGSZDN96do1C2nuJbxgCdz/9RtzUD32WqsJQXxSO13NXaqvVl+rGUfD0jO8c3S5btEcew7c2KhOayYYmejm3X+9wxRaeQHv/usda7a0aYIEIAABCEBg3gkgunNhxYhuzQ0b0UV0a248C/RA13X13T8jIyPywludzlElUyaCkrmgUr5Fo/khqq+OjIzE4/FkMimJl0olHc+sZSgWi8lkMh6Pm9n509QtiK6iIGAR0AmoIidbew4s6zmwTLeY5qlHTUt0Nx+68bhv5GTr2qdWbB5sFYW2Hq81c9ywd7m+N6jv5Bf6rerbf/7uh4+0Wh/eMKRfEAEIQAAC80KgY/stq/70y3Phews2zc4nb2l7hFmXa2nOiC6iW0u7WeDHRCIRnX1K1FH+NWddVvU1I2i4cp+qWqvGL5VKVrdw2TJMOauzJFg59wX+5S7Y6lvvFtKXDJmSacKZlug6jvPY8RsjkzXleKHN6pItWwZLhvXwsoGyTm4WmzAEIAABCMwpgbY/+r2v7WQ+qll7x9Ka5363Y/stHeuXzOm31qyJI7otgVl4vVAj/cpCoVAikZDnYAuFQjqdNkcRO46TTqfNl9FbYcta/TWPxWKZTCaXy2Wz2VQqpX25Zkwtg0azHhs2I0tYijFl7v4D2bJACPQcWL79rWXxQlu80NY30fs6WcVXuZ19J1v7TrZu2Hv3ZHGs7ZL4ztHxLB4+0mqORtaYXZs65P1GEm3zYKv13iDJdLJ/qy+M5kgAAhCAAARmkUD7xtuZj2oWO59X9X+5Y/stK7vaZ/E7WjhJIbqB8VxeL9SAPzuZbNnsyG3ASlBkCNgE9lxeYT5Pa+9mHQIQgAAEIDAJga/9QWf7n9zaueOW+/f/7iz63sJMavXer3Rsv6V90+9PApvNUxBAdBHdKZoIuysQCIVC8pRshTjsgkDDEZDe1IYrNgWGAAQgAIEgEOjsXt6x/RZcd4ZyfsNy/+RWZ9XKIHytjVgGRBfRbcR2S5khAAEIQAACEIAABAJKoGPd0vY/ubVj+y1O9HdW7/3Kmm/eyqdKAvfuu/UPdn+l88lbOrZPvFUIy51BG0d0Ed0ZNB8OhQAEIAABCEAAAhCAgI/Ayq729vB/Ft0dn06Jz3QItD36e0xA5WtT096A6CK60240HAABCEAAAhCAAAQgAIFqCHSuWdHZvZxP9QSYeqqadlVNHEQX0a2mnRAHAhCAAAQgAAEIQAACEIBAwxBAdBHdhmmsFBQCEIAABCAAAQhAAAIQgEA1BBBdRLeadkIcCEAAAhCAAAQgAAEIQAACDUMA0UV0G6axUlAIQAACEIAABCAAAQhAAALVEEB0Ed1q2glxIAABCEAAAhCAAAQgAAEINAwBRBfRbZjGSkEhAAEIQAACEIAABCAAAQhUQwDRRXSraSfEgQAEIAABCEAAAhCAAAQg0DAEEF1Et2EaKwWFAAQgAAEIQAACEIAABCBQDQFEF9Gtpp0QBwIQgAAEIAABCEAAAhCAQMMQQHQR3YZprBQUAhCAAAQgAAEIQAACEIBANQQQXUS3mnZCHAhAAAIQgAAEIAABCEAAAg1DANFFdBumsVJQCEAAAhCAAAQgAAEIQAAC1RBAdBHdatoJcSAAAQhAAAIQgAAEIAABCDQMAUQX0W2YxkpBIQABCEAAAhCAAAQgAAEIVEMA0UV0q2knxIEABCAAAQhAAAIQgAAEINAwBBBdRLdhGisFhQAEIAABCEAAAhCAAAQgUA0BRBfRraadEAcCEIDATQTWPrWi58CymzZNstK1qeORI63WzjVb2iInW83PY6/ZcRzH6drUHjnZunnwi12r3M7HjrfuHF3+2Gutq9xOK1lWIQABCEAAAhCAgBBAdBFdfgsQgAAEqiWw9qkVjx1vjRfa9l/v6Dv5hX/6j1/ldm4eHDfS/dc79l/vsCJs2Htju+zdf71jz+V7rDiO4+y5vGL/9Y6do8t1V+Rk657L9/QcWLbn8j0Pf+7Pa59aoREI1I1AaGIpm53ruqFQyHXdsnvZCAEIQAACEKgDAUQX0a1DMyMLCECgSQjsv94RL7SJvlYW3YePtIqjihVb9d88OL63sqA+MpGCJbp7Lq/oOTDuvQ8fGTdex3FEers22S5t5cjqLBJIJpOlUsmbWIrFYjweNxM39+bz+XA4bO51HCcWi2UymUuXLlnbJ1sNh8OSV9kIQ0NDnuflcrmyex3HKRaLnucVCgUrgiabyWRkVywWk4ysf2XvyMiIbPcL/GRZWDmyCgEIQAAC9SSA6LYEZvlSPb948oIABCBQA4GeA8tWuSvXPjXe0VpZdNdsaRP5FCu28hINXrOlzdquq12b2iULv+jKSOaHj7Tu+vBu6fUV9dVjCcwpgUQi4XlePp9PTCxivOp+undgYCCdTlsKajqw3zwnK7ZopOd5/ggqq1OKrud50WjUTEGK6nmeJbr5fD518yJHqeimUikzHdXj6mtkHk4YAhCAAATmiACiGxjPbUF056iRkywEIDDLBKoRXc2yrOg+8fZ4j+5jx1ufeGvZE28t8z/uu3N0+Z7L94jumkOXNx9aFi+0PfHW+L89B5Y/cqR11/lx3WWpG4FcLud5Xl9fn+QoHaqJREJWZW8oFCq7ms1mM5lMNBot28VatgqSvui0P0I+n5ddlUVX4qTTaTMFPdYSXV01IzuOo6Jr9UXL9lKphOhaxFiFAAQgML8EEF1Ed35bILlDAAKNR2Dmoiv2u/vyCgnsv95hzjjVc2DZ/usdG/Yu94uu4zhrn1qxebB17VMrZC+DluvcgAYGBlRrHcdJJpOe5+no5WKxWCqVtEipVMrzPDO+7KpSdKXDNpVKSaeuJisB6ZKVf6cU3VwuVyqVtOc5Eol4nieOqmYrfbO6amUnkeVfs3O4WCzmcrlisYjoWsRYhQAEIDC/BBBdRHd+WyC5QwACjUdg5qLbtemLB3S7No0/9xsv3BjG3LWpfc/lFTIuuqzoKq89l1c8fGR87uXNg63+PmGNRmBOCYjZaheuZbAzFN18Pi/26BfdcDhcLBYzmUwoFLIGSFv1lWNFYlW5xVfj8bh/6HIul5NR2fKvurEqrud52jlsyjaia5FnFQIQgMD8EkB0Ed35bYHkDgEINB6BmYuuVWcZySx9s5GT46OaHz4y7q6bD42HZZpl62VCn89B1S6TY+25fI85wtlKn9U5IjA8POx5nvnM6iyKrjik9BX7RXdkZKRQKMjMz9WIruu6pVJJO36lG9bqwtWnbT1j0c5bFV2zczibzYrfWhWfI+AkCwEIQAAC1RNAdBHd6lsLMSEAAQiME5ih6K5yO3sOLDOnXJYBzCK6MkuzvnZIA+YQZen13bB3uU5JJX2/FWa34pubdQLy9Kz2bUr6lu/V3KOrHbaSrCW62o/qOE6VPbqO48jkWK7rSkduIpEoK7rZbFb8Wf719+jK4fF4XEZWy1Bnq+KzTpsEIQABCEBgugQQXUR3um2G+BCAwEInMHPRlbHKXZvaHccRR9X36HZt6tCPZLRzdLlpuY7jRE62ythmFd1VbueU7yta6F/brNZfLHdkZMRKtewzuvoEr0aeUgtFSkulUnFikR5WfZWReK/skrDnecViUUdQa0b6eqFQKCRam0qltBu2rOhWfkY3Go1q57D4dl9fn+u6U9bILBJhCEAAAhCoAwFEF9GtQzMjCwhAoKkIzFB0HcfZfGh8uqk9E5NRSReuORmVwir7jK48lCvqKyV5+EjrY8fHX6trDW/WdAjMLgERvHw+r72dmr4163I2mzWnaNZoU2phIpHIGItMmywzNkvfrO6ULAqFQiaT8ZfHFF3HcWTUsT6XW5voauewTkAlvco8o6vfLwEIQAACQSCA6CK6QWiHlAECEGgkAl2b2vtOtlb59trNgzd6X60arn1qfMapnaPL+06OT6Fs7ZXVVW5n38nWh48sK7tXNvYcWL5zdPn2t5YxbrkCpVncJQN3S6VSPB6PGotkIQ6czWYjkYhoZFn984tuOBzOZrPm475mma2hy+auKocuS2evzBGt79QtK7rWZFTW/FXyyK4cqBNKI7rmN0IYAhCAQEAIILqIbkCaIsWAAAQgAIEGICBzMslYYv3XtFkZdSy7ZL4of638oivv+8nn8/7I2itbdte0RFdGHWtpy4quVkoDkq9ORiWrZt81olv2q2EjBCAAgfklgOi2BGb50vw2BXKHAAQgAAEITEnAdV1zriYNmweGQqGBgYFIJFJ2LLHMIOV/njYWi00rvuYoZdBVK2DtDYVCZi7+Va2RBiRBqbgeK6ual5WLbicAAQhAAALzRQDRDYzntiC68/UrIF8IQAACEIAABCAAAQhAoKkIILqIblM1aCoDAQhAAAIQgAAEIAABCEAA0UV0+RVAAAIQgAAEIAABCEAAAhBoKgKILqLbVA2aykAAAhCAAAQgAAEIQAACEEB0EV1+BRCAAAQgAAEIQAACEIAABJqKAKKL6DZVg6YyEIAABCAAAQhAAAIQgAAEEF1El18BBCAAAQhAAAIQgAAEIACBpiKA6CK6TdWgqQwEIAABCEAAAhCAAAQgAAFEF9HlVwABCEAAAhCAAAQgAAEIQKCpCCC6iG5TNWgqAwEIQAACEIAABCAAAQhAANFFdPkVQAACEIAABCAAAQhAAAIQaCoCiC6i21QNmspAAAIQgAAEIAABCEAAAhBAdBFdfgUQgAAEIAABCEAAAhCAAASaigCii+g2VYOmMhCAAAQgAAEIQAACEIAABBBdRJdfAQQgAAEIQAACEIAABCAAgaYigOgiuk3VoKkMBCAAAQhAAAIQgAAEIAABRBfR5VcAAQhAAAIQgAAEIAABCECgqQgguohuUzVoKgMBCEAAAhCAAAQgAAEIQADRRXT5FUAAAhCAAAQgAAEIQAACEGgqAoguottUDZrKQAACEIAABCAAAQhAAAIQQHQRXX4FEIAABCAAAQhAAAIQgAAEmooAoovoNlWDpjIQgAAEIAABCEAAAhCAAAQQXUSXXwEEIAABCEAAAhCAAAQgAIGmIoDoIrpN1aCpDAQgAAEIQAACEIAABCAAAUQX0eVXAAEIQAACEIAABCAAAQhAoKkIILqIblM1aCoDAQhAAAIQgAAEIAABCEAA0UV0+RVAAAIQgAAEIAABCEAAAhBoKgKILqLbVA2aykAAAhCAAAQgAAEIQAACEEB0EV1+BRCAAAQgAAEIQAACEIAABJqKAKKL6DZVg6YyEIAABCAAAQhAAAIQgAAEEF1El18BBCAAAQhAAAIQgAAEIACBpiKA6CK6TdWgqQwEIAABCEAAAhCAAAQgAAFEF9HlVwABCEAAAhCAAAQgAAEIQKCpCCC6iG5TNWgqAwEIQAACEIAABCAAAQhAANFFdPkVQAACEIAABCAAAQhAAAIQaCoCiC6i21QNmspAAAIQgAAEIAABCEAAAhBAdBFdfgUQgAAEIAABCEAAAhCAAASaigCii+g2VYOmMhCAAAQgAAEIQAACEIAABBBdRJdfAQQgAAEIQAACEIAABCAAgaYigOgiuk3VoKkMBCAAAQhAAAIQgAAEIAABRBfR5VcAAQhAAAIQgAAEIAABCECgqQgguohuUzVoKgMBCEAAAhCAAAQgAAEIQADRRXT5FUAAAhCAAAQgAAEIQAACEGgqAoguottUDZrKQAACEIAABCAAAQgEgUD3fZ1/EW35+79afOplPtMgcPzAXfHtS4PwDTZ6GRBdRLfR2zDlhwAEIAABCEAAAhAIFoGXdy/53/9tydXhlisnlvzb3y2+eJxPVQT+7e8WXx1uuTrccu7Vxbu+vixYX2qjlQbRRXQbrc1SXghAAAIQgAAEIACBoBLovq/z1Mvjtnbx+OL3Dt9+anARn+kS+Ocjd1x6ffw2wct/tiSo33MDlAvRRXQboJlSRAhAAAIQgAAEIACBhiDww2fHLfdnr9w5Xbsjvkngx9/9qvTubn/47ob43gNYSEQX0Q1gs6RIEIAABCAAAQhAAAKNR2D7I3dfHW754FUsdxb6sd9+adGVE0vOvbq48dpBMEqM6CK6wWiJlAICEIAABCAAAQhAoMEJHD9w19Xhlh9/96tm5yThmgn89Id3XB1uoVO3tp8Foovo1tZyOAoCEIAABCAAAQhAAAI3Ebh4fMm//O1dNXsdB1oE3n5p0dXhlr+O06l7UzOrcgXRRXSrbCpEgwAEIAABCEAAAg1MIB6PZ7PZYrGYz+dzuVwikWjgygSy6N33dfJ0rmWqM1+99PqSv/8rRLeWFo/oIrq1tBuOgQAEIAABCEAAAg1EIJfLeb6lWCy6rttAtQh4UR9c147oztxsrRQuvb5k5OW7Av7VB7N4iC6iG8yWSakgAAEIQAACEIDA7BAYHh4Wyc1kMgMDA7FYLJPJyJZUKjU7eZCK44jo/vSHd1iqxupMCPzb3y1GdGv7eSG6iG5tLYejIAABCEAAAhCAQGMQKBaLnuflcjmzuNLHWyqVzI2EZ0LgwXXtl15fMhOpq8Ox50/1//LCiTpkNFtZvH/4dkS3tmaJ6CK6tbUcjrpBIBQKMeqJ1tD0BDaueaB7dVfTV5MK1odALpfLZDL1yYtcICAEEhNLNBo1gYyMjEinrrmR8EwIPLiu/Z+PzE537ulXVn4ydk0/v/3Vhd9cG71y7ujpV1bOUCB/eeGE53mayPlT/Z7nnT+1S7cEMPD3f3nnTL6XBXssoovoLtjGPzsV998hnp10SQUCQSJwtv/5zI69QSoRZWlgAsVi0epYa+DKUPRGJiA9uoVCoZErEayyP7iufbZeLHT6lZWe530ydu3ahRPy+fW1UdkyQ9e1RPfcj7Z+Mnbt3I+2BtBvtUiv7b89WN90g5QG0UV0G6SpBrWYiG5QvxnKNZsEEN3ZpLmA03JdN5lMlkqlQqGQSCTKDodxXTeRSKRSqXQ6nUwmI5FIWWCSVDqdTqVSiUQiHA6XjWZtdF03Ho9L4hWOmm7iruvGYjErL1aDTMB1XX1ql7mXZ/Gb+sO17epmMwyI6FpjjC++++ee5/3m2uhMErdEdyZJ1e3Y1De/Ootf08JJCtFFdBdOa5/lmiYSCZnKolQqpdPpspdZsVgsnU7nJpZsNjvdv6axWCyVSmUyGf+BMpFGptxS9trRcZxwOCzR/anNMhqSayIC29ZvPBZ5+sq+Fy/sfuHIlic3rnmgQuW6V3cdDG+pHEcPl8hvbvtGZsfezI69kx24cU33od7HJdqb274x8FCvpmAGnukJHYs8LUkdizy9bf1Gcy/hIBAYGhqSYaL6b7FYtDw2Ho+XSiWNIIHh4WGr/P6kPM+bckqhcDgsD2pq+v4COI4jKq5xPM8rlUplT5viw9IryGBs6zsK7KrZBkqlUjKZDGxRG7FgGx6YW9E9Nbjok7Frn306ZhrmO4eXXnz3uSvnjuZHB8t2zEqEX144cfHd506/stIS3dOvrDx/ql97id85vPT8qf6fHFtrZnH+VP+ZEyHdIqtmvnK4f4seMsPAX+9DdGv5QSC6LYFZvlTLF8gx80HAdd2ybymwroTKXopV+SaDSCRiZuG/hEqlUuZ1mBkOhUJlqejDSP7UysZnIwQyO/Ze2fei9TkY3mKR6V7d9UxPSCNvW99jRfCvdq/uOh191kr5bP9+S5If7d5wYfcLVjRrEHX36i7N2ox5qPdxf75smS8CiURCTlOFQiGdTuuEt6VSSe/Nhf7VGeEAACAASURBVMNhiSN3D1OpVKFQkC2mxOqpNZfLya1AdWPrCUyzsmq5kng6nZbES6WSeZtSy2lF8zzPTFxuNWq+nudxXjVpBzlsiq7nef7bKEEufPDLVgfR/c3EAGb1xp8cW/vZp2Oe5/32Vxc+GbsmAd17anCRPOvred5nn47J57e/ulDhGV3pSc6PDpqJeJ73a6MbWUZQi3JL7p99OiZDoD/7dEyKMbvP/SK6tTV+RLclMAuiW1sbnoejdLyT9LUmk0m9YNIrNr1aklfSx2KxbDYrV2zpdLpyoWOxmF4/yZVcPB63Dkmn057nFQoFf5+ulsE8RMvDBZmJhXAFAod6HxdvlH7Ug+EtZ/ufly2qo92ru45sedJy0WpE91gkKkkd2fLkMz2bBx7qlUROR581iyQ5nu3ffzC8Zdv6Hj3qUO9WjaYbNSktJ/26SmneA/l8Xk5ZeoLSk5J2qekDk3q3znVdPbtKFVSGs9msVioWi8nZtYJtqh6rr4ZCITnTjoyMaFJ6otYylE1cb0SqNVXIWhMnEBwCoVAomUxKszEbQHBK2KAlmWvRFQs1nVNmqzp99MYMVb84d9TzvIvvPqeaKv23Kq4y+Hnmomt6rKZ55dzRdw4vHbfroyvFeLUYMwwgurX9IhDdwHhuC6JbWxueh6PkysacTEWvhPSKTeJYU1zItVHlNxlot0OhULAG9ZlVlasxswzmXiusaU55LWgdyOpCJiA9rmf79yuEbes3ip2qZ25c84BsOdv//JvbviHhKUW3e3WXxDwWeVoTH3io9/PDb4w61i3P9GzWaNJ5e2H3C7Jl45puf1K68c1t39ADCcwvATn5mHbqOI54pipi2ROU3NTzPE/MMx6PSzT1VamX/7Rs1VdM2zpnSuLmOblsNH/iIyMjqVRKylC22FburAaTgN7+0PsvwSxnA5Vq1kW3eGnkzInQmROhcz/amh89JN2nOq54YpjxLnNQsfVkr6wWL42YnmkNXbZmXa6yR9eUbRlQbcrzqcFFxUvjc3qb+c4kjOjW9itAdFsCsyC6tbXheTiq7GWNecXmuq7EMYfbOY6jV2wVCi0DjEulkvYnlI0szjxl57AcK2nqWEG9rCybMhshIAT8Auk4jnSWqkBuXPPAkS1PitmqBk8pus/0hD532i8GOav9HtnypBTgze3j5qxOKxvVfh/tXu84TtmktJzWIGe+2Xkk4HdFeRpWppJyHEfmoEokEtYNPn1MQ1QkFArJe2KsM2RZQTXrW/a8rb3KfX19EllOrfl83jxWTu+WJGuEsinrXgJBIOC6bnRiMYepO46jDcC6bxKEMjdoGWZddOX3pf/+9lcX1HLVG985vPTMidDFd5/Ljw5Kj65OYXXuR1utDt5Tg4vmQnR/c230k7FrWiR/LuauGsKIbm2/CES3JTALoltbG56Ho8pe9MQmFrn2khk4Y7GYdSmmEluh0HI5KC4aiUSi0ah12SfHSrRUKuW6bmhimSxN6W0uFAqhUEj+VCC6k7Fiu0lAnNbyzG3re7at7xHJNCM7jlO96B4MbxHR1SHQkpRl0dJ5a8nqo2s3yLEyK9XGNd1SJKswMhBahdzay2r9CehtPuv235QlKWvI1lE6ntmaKMGMZt6L1O1+z9HhrJqUf4seLgHOqxaQAK7qnz+r+emXq3c6Alj4xirSrItu8dLI6aMrTx9dKc/i/vZXFyxLPHMipM/o/vraqLyCSEXX6q2VYxHdxmpUMyktohsYz2Xo8kwacn2P1cFOIyMj1u3hCgXR8cMVPFOHQKdSKbm8k0uoYrFoZSTbc7mcXL15nlcsFq0/4VIYSUfGVHNBVuELYpdF4FDvVlHKN7d9wzJSK6asVi+6mrKVrIiumq21KrnoYOnJpl92HEd7fSvEKVsFNs4dgVAopDNLFYvFKk+eerJV7SxbQjnLye28shEcxyn75Ih6jtmhp06en1jktFn27Cp5cV6djHmgtuvD3vrHNBaLacsJVFEbujCzLrqqrKcGF+VHBye6Z/9cXfedw0vlGV15MlamnvI8T49CdBu6Oc288IhuS2AWenRn3p7rlILrujJMTq5vZLqpKfOWp2orj0nWx88k5Xw+b14a6kNEenNa3nthKrF1NSaXifqosCRbwbSnrAURFg4Ba2LkzI69lb0xIKK7cU23GLL5dPHC+daCXNNQKKQPUMi5qLLu6vmw8jMaKsP+SftMGhpNT5LqOf4ZlfUGopTTmpnZTNZxHM6rFpBgrup9ZLkvbP7drNxyglmdwJZqTkX3ncNLZdpk1dozJ8aHqplTT/3k2FpTdOWB2yvnjqob+5+etWS47CH+WZetZ3QZuhzMNonotgRmQXSD+RuZtFRDQ0NqofKHU+8T+4/Rayydrcofx3EcfRrN7JrQY/X6TF/eqH+ezd4S9WEdzqcjqLkgK4t9QW08Fnna/FR2V+kdFW+U3l3/G4CUXkBEV+bQurD7Bau7WMtJYH4JiO7qyXOyN65FIhGxzXw+r+c0f8n9p0d/HNmiEzj77w96nqcjV9Wu5Q7mwMCAdAVbMmzmwnnVpBHkcCgU0m9TvrVcLmd25ge58I1StjkVXe3U1SmURWt/8/mLf945vPT/vTD+Tgrt0T01uOg310Y/+3RMn+zVtw2p+lqiKzptjpHOjx5CdBulBVrlRHQD47kMXbbaZoOsJhIJ/cM52RVb9ZdiKrp61SUY5IJvsqlQJI7erlaXljvWZmcIF2QN0qzmsJjiq/qvOe9xhVyf6dms76qdzCGDILr6qqFnesq/TbpCHdlVZwIVToz6oId5y89fvAop+CM7jmN1KWcyGT3lanw5bVqTUclJfrIzMOdVpdcQAZlEIxKJVLiB0hAVCWYhH1zX/vZLi9QhZxKQnlVTWSU1eXutdurKa3U/GbsmQivvsDWnWdYX7f7m2qjEkWd6tWyW6KpOfzJ2rXhp5Le/uiDxzS5cy3tFp+d0Mqr/+tztwfzGA14qRBfRDXgTbYziVbje0slOTOGcrFZ61aV9sBJThj3rCOSyh+tUz5KRPnuWTqdTny9yQZbP51OplPYGl02Njc1KYOChXvMz5QzJJoeD//fXxZB1YmRz76yLrvTN6iO7kpc1GZVZgCNb/osU72B4i7md8LwTiMViqYnFKoncwrPeOVSl5eqpdbovQZUJ/ERyrPe0RSIROUnq7UIp8GRnZtmL6FpfK6sLmcCD69rfP3y7OuRMAu8cXnrtwonzp3ZZiZz70dZrF06YrxQ6f6r/19dGi5dG8qOD7xxeeuXcUWus8umjK3954YTEOXNis6SgyZ45sdlK8NTgIknz19dGr5w7evroymsXTmg38qnBRdbqqcFFF999zsr0/Kn+axdOaC4zDLxx8I6F3K5qrjuii+jW3HgW6IGJRCIzsVj1L3vFpr2s1pWcdayu6qWb1aNrie5kMy3L9ZaIrvYzy0b/vzypq9gJ+Ak80xOSEc7dq7vMvWUniJII1YuuThZlzd4sUyVrJ7O8Xsh61HayXA71Pi6Wq+/4NYtNeH4JTCaK/ncCVWm5aqST9bJWU19NRGe60ukPLNHV6amsW5CSi5xdOaNWw5w4TU/gwXXtHw7dNUOp43CLwI+/+9V/+M5dTd945qKCiG5LYBae0Z2LFj77aU52xeMfXVzlM2ZmEbVXVh/Hlb0ymk4v6aQMpVLJHHmlUi2XaMlkUoTc/FcuyAqFQiaT0Ws7swCEISAE9A1A29ZvNJmU7WWVCJMpqHm4hLVX1ux61Y362LBOzmzKthbMfAQXy/VDDtQWPTsNDw9rwXQSAVVEneevVCqVfa2aHFvDqVUzlYC8s1dO2uYoZdd1daOeXU33ttKRVUS3LBY2LkwCD65rvzrc8m7yq5aqsToTAj975c6RlxHdWn5SiG5gPJdndGtpwPNwjF6xZbNZnX1Khy7r+GTz2qhsJ8BkRZeeWHOST01c1VTLoFeNeoHoeV6F7Lggmww72y0Caq2no8+qUh4M3xi6rJ2u5lF6SDXDoUWYzamt3tz2DemS1ew0wSOPPSkZ6YzK5nhmLVXZAdVmCQnPIwEdY1IsFuXumyilecqSoSsyt1/Ot8jZ1XVdnS/30qVLvli5yg9lpNPpfD6vWfufAdaHPorFYnpi0chWN6/C5LyqKAhAQET3Z6/cOROv41iLwKXXlyC6tf24EF1Et7aWs6CPGhkZkSubUqmUy+X0qsu8ZjLfPySRzX+1B8PP0Zw/2Uzc7HZwHEfLUCwWzbfpWl3BVvpShgq5W/FZXcgEjmx5Uszzyr4XMzv26tzLpp2afNRLqxFdjXxh9wuZHXtl0PKVfS9aA4+1DGf795+OPqvRVIa7V3dpIcsGtH/YLCrh+hNwXdd6t5DMfqz37/RVt+ap0gzLkBYdXWzuMsNmgv5qqm+XSqVUKqXdtmZMvbeoyZZKpcksl9cLmegIQwDRtRx1VlYR3Zp/WYhuS2AWhi7X3Izn4cChoSG9zS8XQ7lczuxKVfvVSyUzUFk1/a9ASKfT/gsyqwyVL8WEkZShcu7zQJMsg0rgUO9W9VvRyMyOvSqZVqnVXasRXcdxnukJmYlf2P2COZJZE1fXlQKc7d9vpr9xzQNl/VY3IrpKMgiBSCQiGpnP5wcGBqzTWl9fX2zyRQYzy5S5k8eKWWlatY7FYolEYsoZd0Oh0MDAQGpiSSQSU6YZi8XM87+VKasQWDgEuu/rvDrc8sGr9OjOztTT4slXTiz5+79avHBa0SzWFNFtCcyC6M5iw65TUvLGxUwm478MClVc/PH9JQ6FQnIxVzmyxJnyuk3Sl0JVTtBfErYscALP/OFm6dSdTHGVz8Y1D2xc84D5SK3umiywbX3PtvU9j3avr3BU9+oujeZPRzKd7N8KyfqTYksdCEiXLLfb6oCaLCAwLwR+9urii8cXz0pPJomcGlz0bvKrV4db/iLaMi/fZqNniugGxnN5RrcBf0xyxVZ5tHADVosiQ+AmAtJrWva53JvisQKBKgjIGObKA4yrSIYoEIBAQAm8tHvJ1eGW2XrJEK774dBdV4dbNq7rCOj3HexiIbqIbrBbaLBLJ1N3VpgdNNjFp3QQqIpA9+qugYd6zQHDVR1GJAhAAAIQWHgEuu/rvHh8yaXXl7z90mwO312YxvuTH9x+dbjltecZt1zjDwnRRXRrbDocBgEIQAACEIAABCAAAYvArq8vuzrccun1JT/+Lu8Zqt32z/7wjisnlvzsb5bQnWs1sOpXEV1Et/rWQkwIQAACEIAABCAAAQhMQSC+fenV4Zarwy0fDt31kx/c/v5hPtMgcPaHd1w8vvjqcAuWO0U7m2o3oovoTtVG2A8BCEAAAhCAAAQgAIHpENi4ruO158dtjU8NBC4eX/LSny154L6V00FOXJsAoovo2m2CdQhAAAIQgAAEIAABCMycwAP3rdz+yN3x7Uv5VE/gjx66Z+bkScFxHEQX0eWHAAEIQAACEIAABCAAAQhAoKkIILqIblM1aCoDAQhAAAIQgAAEIAABCEAA0UV0+RVAAAIQgAAEIAABCEAAAhBoKgKILqLbVA2aykAAAhCAAAQgAAEIQAACEEB0EV1+BRCAAAQgAAEIQAACEIAABJqKAKKL6DZVg6YyEIAABCAAAQhAAAIQgAAEEF1El18BBCAAAQhAAAIQgAAEIACBpiKA6CK6TdWgqQwEIAABCEAAAhCAAAQgAAFEF9HlVwABCEAAAhCAAAQgAAEIQKCpCCC6iG5TNWgqAwEIQAACEIAABCAAAQhAANFFdPkVQAACEIAABCAAAQhAAAIQaCoCiC6i21QNmspAAAIQgAAEIAABCEAAAhBAdBFdfgUQgAAEIAABCEAAAhCAAASaigCii+g2VYOmMhCAwFwT2LZ+45EtT1aTS/fqroPhLc/0hKzIh3ofPxZ52vxsXPOAFcdxHInQvbpLdx0Mf/3Nbd/I7Ni7bf1G3UgAAhCAAAQgAAEI+Akguoiuv1WwBQIQgIBNoHt116HexzM79l7Z9+KVfS/au29e37Z+Y2bH3gu7X7iy78VDvVtv3umc7X/+wu4XzvY/r59t63usOId6H5eM1IG3rd94Zd+LB8NbDvVuvbD7BRHgbes3agQrBVYhAAEIQAACEFjIBBBdRHcht3/qDgEIVEvgUO/WK/tezOzYe7b/+cqiu3HNA1f2vXhh9wtixX7RlXQqZLxxTfeF3S+IJ6vHHurdmtmx13Gc7tVdV/a9KG58tv/5gYd6KyTFLghAAAIQgAAEFiYBRBfRXZgtn1pDAALTI/Bo9wbpRBV9rXBw9+ousdCBh3r9PbqiwZUHPx+LRM/27z8WiV7Z96KK7sHwlrP9+x3H2bimW0T3UO/jsqVCYdg1FwRc100mk5mJJZFIWFno3nQ6HY1Grb2y6rqu/8CyMWVjamIpGyEcDqdSqQqpJZPJySJIsvF4XFKWpGSj+a/sjcfjslFWzX8TiUQqlUomk+ZGwhCAAAQgML8EEF1Ed35bILlDAAINRmBK0dX6lBVdGYGc2bFXnrY9FnlaVVYOlKMGHuq1RLd7ddfZ/udPP/3shd0vnI4+K7prHatZE5g7AuFwuFgsep5XLBZLpZLnefl8XrPz7zX1Txw4l8t5nlcoFPSoyoGhoSFvYikbTQqTy+XK7nUcRyKUSiXXdc04sVhMks1kMrJdt8h2/Vf2joyMyBbL3l3Xle3V18gsBmEIQAACEJgjAohuS2CWL83Rd0yyEIAABGaRwAxF95mekAxsfnPbN2QU9Nn+/Trj1MY13Wf7nz8WeXpiMqqbenSlL/eZns0DD/V2r+7K7NjrHxQ9i9UkqckIiO+lUimJINaq7pdOpz3PE7kNhUKliUUNUyKLeVapheFwWDTS8zx/kZLJpOydUnS1VJqIiqslurqqMSXgjy/bE4mElKHKGlnJsgoBCEAAAnNEANENjOe2ILpz1MhJFgIQmE0CMxRdx3Ee7V6vPbHSbXswvEWKKIOWZa/Vo2vWYeChXhm0LHNTPdq9wdxLeE4JvP/++8ViUd1VNE9HDufzec/zdK94r2pwPB6XcPU9usVisVAoiBtb9QqHw6VSKZvNep5XWXQLhUKpVDLjuK5bKpWktGq20qOrq1Z2IrrSj60VdBwnl8tJCRFdixirEIAABOaXAKKL6M5vCyR3CECgwQjMXHTNCksHr3ThyqDl09FnD/VuPdS79XT02Sv7Xjyy5UnrBUXS6ytjm8/2739z2zcmHtnlhUMm1/qFRf9UZUulkul7qVTK8zzVYC1WlaIrHbahUKis6I6MjBQKBbFTU2I1FwnIsTL+ORKJyEbxc9moZluN6MqBOh5bOpwzmYxVcasMrEIAAhCAQP0JILqIbv1bHTlCAAINTGCGovtMT+hQ71YdqyyP7MrcVDKxs7xVyPxXNFiRHYtEj0WeNudefnP7N6w4GpnAnBKIRCKWslqrMxFd6bAVC/WLrvYkh0KhKXt0Pc/r6+vzPM8cca2SbIluqVQqGktfX58wVKU3O4ely1rKYBr+nGIncQhAAAIQqIYAoovoVtNOiAMBCEDgBoEZiq7Y7JHHnpTkZHxy2VcElR26vG39xrP9+zeueUBmb5bpnRHdeWmdMu9UoVAIhUJagFkUXemwlcQt0ZWsRVCrFF0ZY1wqlRzH0W5YqwtXVguFgkwoLf/6RVf6gbVg0plsVVyBEIAABCAAgfkigOgiuvPV9sgXAhBoSAIzFF2ZPPnKvhdPR5+VyahOR58tC6Ks6D66doOOZM7s2JvZsXfitUO8TbcswjncKKpZKpV0MLBkZo3grblHVzpsh4eHoxOLTO8cjUbD4bDjONK5mkgkotGoxMzn89Fo1Hx0VisvkiwTPnueF41GdUR0WdHVDl5NQQLao6udw3K4DMxGdC1crEIAAhCYdwKILqI7742QAkAAAo1EYOCh3iqnO360e8Oh3q3b1ttPz25c0z3wUO+b28bHGx8Mb9FhzBYFa5CztVcmYT4Wib657Rs6l5U/DlvmgoDrumKP+gZazcXqerUmo9JoU2qhWKXnW9QqfXvGN5h9y5qXFCkUCskEVNlstlgsyiuRahNd7RyWQoYmlilrpOUhAAEIQAAC9SGA6LYEZmHW5fq0eXKBAAQgAIEZEZDJinVCJjMty2y1N9WM4zhOWS2MRCLSYes4juu6IpDyrymrjuOYu0RWc7lcWcvV9+jKXimezo9Vs+jqa43M4dM8o2t9y6xCAAIQmF8CiG5gPJfXC83vT4HcIQABCECgCgLyhKpMyJT7fMlms3Kovjs3m83KW3N1/iczbb/oinNeunTJjKZhq6NYt4v0VjMZlYiu5KJ9v2VF15qMqlgsSnY6dFk8XEdTaxkQXfN7IQwBCEBg3gkguojuvDdCCgABCEAAAg1DIJVKfa63X/xvPtcaCoUymUw+n8/lcmV7fWXor3mIqGOF+KLNZRmFQqFcLpdOp8vudRxHjtXHd7PZrLp3JBIxM5XVL2r1eUhSlorr3FSpVMrU+1wuZ9VosvKwHQIQgAAE6kMA0UV069PSyAUCEIAABCAAAQhAAAIQgECdCCC6iG6dmhrZQAACEIAABCAAAQhAAAIQqA8BRBfRrU9LIxcIQAACEIAABCAAAQhAAAJ1IoDoIrp1ampkAwEIQAACEIAABCAAAQhAoD4EEF1Etz4tjVwgAAEIQAACEIAABCAAAQjUiQCii+jWqamRDQQgAAEIQAACEIAABCAAgfoQQHQR3fq0NHKBAAQgAAEIQAACEIAABCBQJwKILqJbp6ZGNhCAAAQgAAEIQAACEIAABOpDANFFdOvT0sgFAhCAAAQgAAEIQAACEIBAnQgguohunZoa2UAAAhCAAAQgAAEIQAACEKgPAUQX0a1PSyMXCEAAAhCAAAQgAAEIQAACdSKA6CK6dWpqZAMBCEAAAhCAAAQgAAEIQKA+BBBdRLc+LY1cIAABCEAAAhCAAAQgAAEI1IkAoovo1qmpkQ0EIAABCEAAAhCAAAQgAIH6EEB0Ed36tDRygQAEIAABCEAAAhCAAAQgUCcCiC6iW6emRjYQgAAEIAABCEAAAhCAAATqQwDRRXTr09LIBQIQgAAEIAABCEAAAhCAQJ0IILqIbp2aGtlAAAIQgAAEIAABCEAAAhCoDwFEF9GtT0sjFwhAAAIQgAAEIAABCEAAAnUigOgiunVqamQDAQhAAAIQgAAEIAABCECgPgQQXUS3Pi2NXCAAAQhAAAIQgAAEIAABCNSJAKKL6NapqZENBCAAAQhAAAIQgAAEIACB+hBAdBHd+rQ0coEABCAAAQhAAAIQgAAEIFAnAoguolunpkY2EIAABCAAAQhAAAIQgAAE6kMA0UV069PSyAUCEIAABCAAAQhAAAIQgECdCCC6iG6dmhrZQAACEIAABCAAAQhAAAIQqA8BRBfRrU9LIxcIQAACEIAABCAAAQhAAAJ1IoDoIrp1ampkAwEIQAACEIAABCAAAQhAoD4EEF1Etz4tjVwgAAEIQAACEIAABCAAAQjUiQCii+jWqamRDQQgAAEIQAACEIAABCAAgfoQQHQR3fq0NHKBAAQgAAEIQAACEIAABCBQJwKILqJbp6ZGNhCAAAQgAAEIQAACEIAABOpDANFFdOvT0sgFAhCAAAQgAAEIQAACEIBAnQgguohunZoa2UAAAhCAAAQgAAEIQAACEKgPAUQX0a1PSyMXCEAAAhCAAAQgAAEIQAACdSKA6CK6dWpqZAMBCEAAAhCAAAQgAAEIQKA+BBBdRLc+LY1cIAABCEAAAhCAAAQgAAEI1IkAoovo1qmpkQ0EIAABCEAAAhCAAAQgAIH6EEB0Ed36tDRygQAEIAABCEAAAhCAAAQgUCcCiC6iW6emRjYQgAAEIAABCEAAAhCAAATqQwDRRXTr09LIBQIQgAAEIAABCEAAAhCAQJ0IILqIbp2aGtlAAAIQgAAEIAABCEAAAhCoDwFEF9GtT0sjFwhAAAIQgAAEIAABCEAAAnUigOgiunVqamQDAQhAAAIQgAAEILDQCGxc17H94bv5VE+g+77OhdZI5qi+iC6iO0dNi2QhAAEIQAACEIAABBYoge77Ol/eveR//7clV4db+EyXwPs/WBzfvnSBNp3Zqzaii+jOXmsiJQhAAAIQgAAEIACBBU9g+yN3i+JePL74pz+843/+4Pb3DvOpisD//MHtH7x656XXx28QnHp58YPr2xd8a6odAKKL6NbeejgSAhCAAAQgAAEIQAACJoE/emjF1eGWS68vee/w7acGF/GpjcDPXrnz6nDL+z9YzEhms3VNK4zoIrrTajBEhgAEIAABCEAAAhCAQHkC3fd1nnt18aXXl/z4u1+tTfA4Sgn89Id3XB1u+etnF5dnzdapCCC6iO5UbYT9EIAABCAAAQhAAAIQqIJAfPvSq8Mt/3zkDrU1AjMhcPH44qvDLXTqVtH0ykRBdBHdMs2CTRCAAAQgAAEIQAACEJgugfd/MN6dOxO141iTwPuHb7863PIX0ZbpfhHEdxwH0UV0+SFAAAIQgAAEIAABCEBgFghcHW754NU7TVUjPEMCV04see15Ri/X0jgRXUS3lnbDMRCAAAQgAAEIQAACEDAJPLiu/epwy89eQXRncwquS68vGXn5LpMz4SoJILqIbpVNhWgQgAAEIAABCEAAAhCYlACiO8PO27KHI7qTNripdiC6iO5UbYT9EIAABCAAAQhAAAIQmIqAiC5vFSrrqzVv/ODVO+nRnarpld+P6CK65VsGWyEAAQhAAAJzQSAej8disblImTQhAIH5JfDguvYPh+6q2eisA8+cCFkfK0Jtq7+8cMLzPD329Csr86ODp19ZqVuCFnj7pUX/zyGGLtfStBFdRLeWdsMxSiCVSiUSCV0lAIEmINBzYNnmwdYmqAhVCCaBYrGYy+WCWTZKBQEIzITAg+vaZ6s79/QrKz3f8snYtfzooRmKqCW6+dFBttZTSAAAIABJREFUz/Pyo4MzTHZOD3/j4B0z+V4W7LGILqK7YBv/7FTc8zyu2GYHJakEhsDO0eV7Lt8TmOJQkGYjgOg22zdKfSDwOYEH17XPlu+J6BYvjZw+ulI+Z05s/mTsmud5F9/985nkYonu6aMrL7773Omjwe3RPTW46L8+d/vnjPl/GgQQXUR3Gs2FqBaBUCg0fhcwn3dd19qlq67rRiKRaDQaiUR047QCoVCoQvrTSorIEJiSwCq3s//83Xsu39O1qX3KyI7jrHI7q4kmcbo2dax9asXap1ZUPmrNlra1T61Ys6WtQsqr3E5JqspyVkiKXfUh4LpuOp0ulUrSSZPP58sOh0kmk8ViUeKUSqWRkZFwOGyV0EqqWCwODw9Xc55MJBK5XE4SLxaLZQvguu7Q0JCWIZ/Pp1IpqwDmaiwWS08s5kbCASRgfbOTta4AlryBirThgVkW3V9eOGE67TuHl3726dgnY9fMjdMNW6I73cPnJf4r8a82UDMITlERXUQ3OK2xkUoSi8Xy+bxcLcm/IyMj1mVWOBzWKyq9rorH41XWMxaL5XI5uSjMZDLWUYlEwszdDIdCISuyrOoh/tTKxmfjQiPQtal95+jy/dc79PPEW8sm08hVbucjR1r3XF7x8JGqBjmv2XKPlfhjr5U5cPNga7zQpgXYc3lFz4Fl1hfhL2f/+bsrW7GVAqv1JxAOh1UdzfPVyMiIWRjrnCkxS6WSeaNwsqSKxaJ1EjZTdhxnaGjIzFrCVgFc1y1bznw+b6VmWRPnVYtP0FZd17X+amvr8t9JCVrhG6g8cy26pwYX/fZXF8wnbE8NLrr47p9LT6/neb/91YUzJ0KWi158988/+3TM87zPPh37xbmjluie+9HWT8auffCjiBx1+pWVn4xdu/juc2Yin4xdM5VbVq1krZL88sKJdw4vNROZSfiv9yG6tfwOEN2WwCxfquUL5Jj5IBCLxeQPpOd5xWJROyjMMczmpVixWDT/vkaj0SlLPTIyoll4nue/hEqlUmYEM1xWdM3y+FObsjxEaHoCXZva91xeIYa5+/IKtc09l2/qfV3ldm4ebDWVtRrR7drUrgnumugulowiJ29y3UeOtMr2eKFt1/m7VXc37F2u/M2kdl9eodHihTZcVykFMKDntFQqJeNc9Kyop0QV0XQ6LcqaTCbl5GaeXUVES6VSNBp1XTcUCpmJT1Z3PW/LTclQKKTZmf26ulHKEAqF0um0lCGZTGrimqOeezmvKpxgBoaHh+XLkm9W7lP4W1cwC99ApaqD6H4yds3s0f3FuVc8z/vlhRPnT+26+O5zn4xd++zTsZ8cW6tWef5Uv+d54q4SQb53K8L5U7tkiwyZth7Z9Tzv19dG9RBJ4be/unDx3ec0zd/+6sJnn47lRwcvvvucuLTpxnpsbQFEt7ZfAaLbEpgF0a2tDc/DUdLnUCgUtJNBL3r0is2/JRKJiBKbV2xlS69/j3O5nFzJ+aNJ+rlcLuRb/JEdx9HylNXmsoewcUERiJy8IZk6DdXDn2unqbLqq2qh5t7JiEniE8OhOyTOY8dvZLf2qRWypWtTu6S5c3T5Knel4zhdmzr2XL5n//WOPZdvxHEcRxw7Xhgf2ywHbj60TA7c/pbd9ztZedhefwL+s5/runKxmE6npTxisIVCwSze+++/L9FEfdVXTe10XVfSz2az5rFmOJvNep5XKBTMW4FyMjfPyXp612PLJq4HqoojukosmIGyLUS+x1KpFMwyN2Kp5lp086OHPM+7cu6o6OI7h5dafa1nTow/U6YRTg0uEjHWR3DfObzU6hMWE56u6H4ydk07bGVAted5mov0PH/26VhtWus/CtGt7eeA6AbGc1sQ3dra8DwcJVdd5hWV/4pN4liXPmqbFQqtA4wrPxUmf57NMkyZZqFQKFuqCgeya+EQEIHc9eHdZpWlj3fn6Bcdqvuvd+wcXb55sPX+r98YYDyl6K5yO0VE+4z+21VupzjzY8dvdOr2HLjhq2qwjuNYG1WGzaTUfplAy/zughYWzbBOiWK2ch6TMcPFYtE69enoFRHUeDxenFj0rqLUVPqHTWW1CJT1HNVUHfMsRbLS8W+Mx+N6COdVC3UAV0OhkDQb8/6I4zjaXR/AMjdokWZddD8Zu/aba6PykeHHv742qobpF0Lpj9WuVL/3nhpcZA1drk10zQ7eslpr5eIv6rS2ILq1/SIQ3ZbALIhubW14Ho4qe1mTzWZzuZz8EQ2FQrmJxRwR5ziOXrFVKLS/P6FsZLmq056QsnFkoz5ypgptXWtWOJZdC4eAiK7lin/82vgoZdMqpa91orv1RgfslKK79qkbI6I37LnJovsnBierWmsfr8lczVb6me//+viDvjtHl6996qZJoZ94e7x/2Cq8mQ7heSegXWfTfR5S7g9a3bz+6pQVaTNa2fO2nhVVmyW7UqmkHhsOh8seq4lX3qvRCASQQJV/cANY8sAWaS5E99qFE9cunCheGn+kSw3WtMSL7z73m2ujMmhZfo8a7dyPtnqep721cpSloLMiulIAs1RWLuauGsKIbm1tHtFtCcyC6NbWhufhqJqv2ORA/6QmWgftGU5MLCLP2WzWEmbHceSqLpVKJZPJzMTijyPJyiNn0kHBBZmiJmARUM/UoctWBGtVFXRK0d2w98YEV2ZXrb8bdjJZld7gyrlIzzNDl63vKFCr2ncqcx2rRlYu5JSSKYdr4uqr/mT9vbKO4/hF13zGJBqNxuNxuatojXk20+e8atJooLC2Lqubt4GqEMCizrroqrKeGlz0m2ujn306dvqVm94DZD6je+bE5nM/ipg+bEksohvANjOnRUJ0A+O5DF2e05Y+q4nH43G5svE8b2RkRJ/UrZyJXlFNZqSO4+jjZ3JNprl4nmcO51MfNiPIzFhWb4n+IZdRfxKfHt3K39TC3Nu1qUOfv42cbLWk1M+ketG1hh9rUlYfsrWq0fzDnnWXBHQKqynLbB3Iap0J6DxPciIq+94gs0g6GqWCZDqOo2e5ymc2fXLEPEnqRtOQQ6GQ3EnUE2ypVDKf7DUL6TgO51ULSEOs6gSNUw4WaIjqBKeQcyq6Mg65eGlEe0R/cmytqbWnBheVHbpsTaFs9bVaMlzlZFTW0GV6dIPTCM2SILotgVno0TVbZtDDiURCH3mVV+lWfm+Q/k2t0J3rOI72S8iUUQMDA8lkUjPSSzF5f6/km5xYMpmMXGwVi0WTnQizSjIXZCYcwhaBNVvaZPInccuyr/bRQwIiumu2jM9Wtf96hzm+WgtJIGgEQqGQnqzkdFShM62shVo10lNrZRm2biMmk0nzhbqe5+nZ1XVdGXojtw71nuPw8LCVta5yXlUUDRSQjvrKtzAaqDrBKeqciq506nqepy8QEvU1Z0j+6cRkVNoPLNNE/caYMPnU4CIZBa22XFZ0NQWVZ9NsrUmYpWDmXND+J4E1u9oCDF2urZEjui2BWRDd2trwvB0VCoUs3VWftMpU/aWYPsRrJhWJjI/D8c+WHIvFzIx0Ug29YpP+E/N2ddl0zEQIQ6DnwHJ9Z8/+6x1PTDKVcRBEV1+JtOfyPfrwMN9g8AmEQqFkMqm9pnrKMkuu3b8VTLj6U6ukrGnKmdDzPHVaHUqtz+hqqXQwjnlaNovKedWk0RBhvYdSYYBVQ1QkgIX8w7XttYmc/yirb1YiiNmquIrHfvbp2PlTu86cCOVHD8mEVaam5kcHpdf3J8fW/uTYWhnqbL6J1xJdnVnq/Kldp4+ulLfsWmZrrdZBdF+J8x7dWto7otsSmAXRraUFB+GYeDzu73TVgunou2ruHKvoWsPk9CExTdYf0G5euRrT4XxmVzMXZH5ubClLoGtTh0wWtf96R9nnY2dddCs/o6uTM2tpTcvt2nTjrUW6l0DwCUx2C89xHDXSydzScRzXdWvolOvr60un05lMJp1ORyIRuT+odwP1qRBrFLREm+wlNJxXg9/YzBJq66pwD8WMT3haBB5c1/72S4v81lrDlrKiqz2l2qmrIup53mefjl189znP89SEJd9fnDsqv1MR1P8zMa+VFskvuj85tvaTsWt6yJWJw+e3R/e1/bdP64sgshBAdFsCsyC6jfGrdF1X3lxrFlcl07o8chxHL8WqeZRXhy5boiu3n/VqzMzaDMtJWcogL43U07Q/4C+qmRThBUVgldvZtanD0kV9A1DZ2YyrF12djMqaddl6oVHfxIt844U2k7y+msiSbSzXpBT8cDKZlJe7aMeplFlOj9a7fNRDKliunlo9z6vm1DoZIhmZrCdDdW+ro2+yW5CSrHninSwjtgeEQJWtKyClbcRiPLiu/ac/vEMdcoaB00dX+t8k9M7hpdb2dw4vPXNi85kTmyXy6aMrzffZShlOH1155sTmnxxbe2pwkaSgZfMnKLsqpOnPwkrTn4tmV1vgv//lnY3YHua9zIhuS2AWRHfefw5VFUCHPFlXbHLBZF2xaWTrsmmynHQyKrMb1nEca7rmRCIhPRJmOtqFK1eHOiTPr7hclpncCJuvq7VcVORz//Uy/aXVi67GtOZztqZK3jw4/oqg/dc7Vrmd+qWUfTXRKrdTepvjhbY1W24SYz2QQKAI6C08HQ8sxZPRy+ZpU8cJV3532nRPrWVpDA8Py8lQbyzqLUsrd83OOu1LspxRy+IN4EYstw5fyoPr2i+9vqQ2l+OoyQi8f/j2kZfvqsPX13xZILotgVkQ3cb4fekVm+miKpnZbFaroX9Tqx8f5bqu/8pPE9duBy2DedWoG6Vg2vMs/c/yr1yQZbPZUChU9opNC09gQRG4/+s3pnR67LVWs+LiovqqW3OX6qvV12rG0bDM57xzdLlu0Rx7DtzYqE5rJhiZ6Obdf/2m3uYn3rqhxBv23vRiXk2cQNAI6JmtWCzG43E5O6ln6n1AndA+n89HfYv23OqpNZvN+mJFzUmV/RwikUg8Hk8mk9KZbE1or3cVPc9LJpPuxKLZmUJupozomjQCG9Z7KLlczt9stHUFtvyNUrAH17VfHW6ZxU7dydxvQW3/t79bjOjW9hNAdAPjubxeqLYmXPej9IqtVCqlUqloNJpIJHRmTr1i02ujQqGQ8i2mJFs1UF8dGRmxEtduBy2DvJEyGo0ODQ2JIVce3swFmUWbVSUgA4n3X++Qdwtt2Ltct5jmqfGnJboPH7mhppJ4z4FlotB7Lt9jjpeWHOOFtp4Dy9Y+tULfG2TOqKzq23/+7oePtFof3jCkX1DQAnpmk7OQ/mtORF95HIp4pna6agpWQE/CZQmYWZRKJf9dyEgkonMumClXmNVZoumNyLL5snHeCeifafNr1TBf32x9QSK6P3vlzgUlonNd2UuvL0F0a2uiiG5LYBZ6dGtrw/NwVCQS0flC9c+k1TMwk7+pOn+ymbh19RaPx/1lqHApJpgkQf6iz0OjCXyWXZs6zHcLySji/dc7zG5YsxLTEl3HcVRQNeV4oc3qki1bBkuG9fCygbJObhab8DwS6Ovry2azeuIqFoupVMocWjIyMiKP8pb9V8bLhEKhsnt1Y4XbiI7jSBa5XM7K2sQi70BS3fWX04zsOI5kbY12tuKwOu8EcrmcNhJ/gK9vtr4gRHcupBfRrbl9IrqB8Vx6dGtuxfNxYCgUSqfT0jlQKBQymYw5ithxHJnYMzPJYlmrvwaJRCKbzeYnlnQ6rX25ZkwtQ7FYzGazFa7b9CgpzpS5a3wCC41Az4Hxjtx4oS1eaOs72bph7xeDjS0Uq9zOvpOtE3GqHT8sie86f/eu83c/drzV7MvVxLs2dTx2vHXn6PLdl1dsf2vZw0darfcGSaaT/WuZsyZLIDgEpEuW223B+UYoCQRml8DF40s+HLprLnxvYab59kuLrg63/HV88ex+TQskNUQX0V0gTX1OqilXbJWnBp2TjEkUAnNJYM/lFZN15M5ltqS9IAggugvia6aSC5jAqZcXXzmxZLZeMrQw5das9f86csfV4ZZnvj7pfecF3Namrjqii+hO3UqIMRkBGUTnf8prsvhsh0BDENg5unz7W8saoqgUshEJMBleI35rlBkCVRLY/sjdV4dbPniVx3Rn4X3Cb7+06NLrS372N0uqhE80iwCii+haTYJVCEAAAhCAAAQgAAEI1Ejg1MuLrw63nJ29F+qaPZwLJ/z2S4vOD911dbhlYPtNL0So8VtZkIchuojugmz4VBoCEIAABCAAAQhAYA4IdN/X+bO/WXJ1uOXDobt+/N2vLhw1ncWavn/49n/7u/H7BS/9Gd25tbdRRBfRrb31cCQEIAABCEAAAhCAAAQsAt33db72/LinXR1uuXh88b/87V0fDvGpisC//O1dV06M3ya4eHzJX0RbLLCsTosAoovoTqvBEBkCEIAABCAAAQhAAAJTE9i4ruO15xe/94PFP3uVzzQI/Pe/XPwX0ZYH7ls5NWJiVCSA6CK6FRsIOyEAAQhAAAIQgAAEIAABCDQaAUQX0W20Nkt5IQABCEAAAhCAAAQgAAEIVCSA6CK6FRsIOyEAAQhAAAIQgAAEIAABCDQaAUQX0W20Nkt5IQABCEAAAhCAAAQgAAEIVCSA6CK6FRsIOyEAAQhAAAIQgAAEIAABCDQaAUQX0W20Nkt5IQABCEAAAhCAAAQgAAEIVCSA6CK6FRsIOyEAAQhAAAIQgAAEIAABCDQaAUQX0W20Nkt5IQABCEAAAhCAAAQgAAEIVCSA6CK6FRsIOyEAAQhAAAIQgAAEIAABCDQaAUQX0W20Nkt5IQABCEAAAhCAAAQgAAEIVCSA6CK6FRsIOyEAAQhAAAIQgAAEIAABCDQaAUQX0W20Nkt5IQABCEAAAhCAAAQgAAEIVCSA6CK6FRsIOyEAAQhAAAIQgAAEIAABCDQaAUQX0W20Nkt5IQABCEBgXglEIpFoNBqJRPylcF1X9rqu699bwxbXdUOh0GSphSaWyZKVY0OhkD+Cf5ckZf2r+cp2XdUE/enoLgIQgAAEIDC/BBBdRHd+WyC5QwACEIBAwxCIRCLFYtH7fMlms6b7RSKRUqn0+U4vlUpZFYvFYul0ulQqRaNRa9dkq5KdPynHccLhsORVVmUdx0kkEhLBn93IyIh1rFkvrUIikXAcJxQKyRZ/MSpkMVmN2A4BCEAAAvUhgOi2BGb5Un2+cnKBAAQgAAEI1EagWCyWSqVkMhmLxbLZrOd56XRak5K9AwMDsVgsn897nqeGGYlEZIsYo27XY8sGhoaGJjNMx3FyuZzsnVJ0c7mcmb4asud5eqyIbjKZTBiL7FXRLZVKZjqO46geV1kj63BWIQABCEBg7ggguoHx3BZEd+7aOSlDAAIQgMBMCcTjcc/zMpmMJOS6rud5hUJBVq29sVjM1OBYLJbL5RKJRDqdNgW4QplER0WPJ+tKlb0qq1Zq0t0qncxmz7O5XY8VZdVVMykVXavkkUjE8zxJH9E1iRGGAAQgEAQCiC6iG4R2SBkgAAEIQCDoBEKhUCwWUxUUEdXO0lQq5XmejPV1HEc0WPdq3SRaNVqYy+UKhYJIqSW64XC4WCxmMhkZgaxF0lwkIMdmMhnPu2kcdT6fLxQK0iGsx04putlstlQqmTWS3CX9ampkFY9VCEAAAhCYUwKILqI7pw2MxCEAAQhAoDkJyLhiNVtLdB3HMft7FUGVoiuOGo/Hy4ruyMhIoVAIhULViG4ikTAFVfw8nU6XFd10Op36fInH41Js6dEVry6VSto5XCwWc7lclTVSAgQgAAEIQKA+BBBdRLc+LY1cIAABCECgeQjIQOV8Pq9VmkXR1Q5bnVDK7NEV9RXBrkZ0k8mkOLl0uuohZUXXMxYdpK2iK+Oxk8mk4zhCYFqDsZUVAQhAAAIQqAMBRBfRrUMzIwsIQAACEGgeAjK7svSpaq3Kiq5pwhKzmv5P7bD1i644cDabldTUWrUYZkB7g2UctcybJd2wOo9U9UOXZdCydg5ns1l5PlnKwNBlkzxhCEAAAkEggOgiukFoh5QBAhCAAAQag4CopmW5juMkk8lZeUZXek1LpVJxYpGpnlQvJRdrb7FYNCd/Vo4qujJFc6lUMnuDrYdyrVVNRF8vJKKrA7Z1Xi5E12RFGAIQgEBwCCC6iG5wWiMlgQAEIACBQBMQyy2VStoRqsX1T7Nszrqs0abs0Q2HwyljkZcY5XI5GTAci8WMnSmZdTmdTuvztJqR1RusY631FUGW2VqrZjoydFlEVzqHJV9zLDQ9uiYxwhCAAASCQADRRXSD0A4pAwQgAAEIBJ2AWK7oq/Gu2YROzlQoFKTXNB6PT+aNZUV3aGgon89rOiYIs1fW3C7hKocuyyzQ0jmsT95aJZRVczKqVCoVi8WsHl19f6++V4keXf/3whYIQAACQSCA6CK6QWiHlAECEIAABIJOQPpsPd+inZmhUKhQKMj+UqkkfbBWrcqKrswLpemYh8yW6DqOY73Ct6zoWpWTSbDMHl1zGiopJ6Jrfl+EIQABCASHAKLbEpjlS8FpFpQEAhCAAAQg4CcQKrdYPbGRicXaqEm5rhsKhfx7/WOh5ZDJ4pt7NXErYB0rqxpHqmKtWvXTcvoj6y4rF02QAAQgAAEIzC8BRDcwntuC6M7vb4HcIQABCEAAAhCAAAQgAIEmIYDoIrpN0pSpBgQgAAEIQAACEIAABCAAASGA6CK6/BYgAAEIQAACEIAABCAAAQg0FQFEF9FtqgZNZSAAAQhAAAIQgAAEIAABCCC6iC6/AghAAAIQgAAEIAABCEAAAk1FANFFdJuqQVMZCEAAAhCAAAQgAAEIQAACiC6iy68AAhCAAAQgAAEIQAACEIBAUxFAdBHdpmrQVAYCEIAABCAAAQhAAAIQgACii+jyK4AABCAAAQhAAAIQgAAEINBUBBBdRLepGjSVgQAEIAABCEAAAhCAAAQggOgiuvwKIAABCEAAAhCAAAQgAAEINBUBRBfRbaoGTWUgAAEIQAACEIAABCAAAQgguoguvwIIQAACEIAABCAAAQhAAAJNRQDRRXSbqkFTGQhAAAIQgAAEIAABCEAAAoguosuvAAIQgAAEIAABCEAAAhCAQFMRQHQR3aZq0FQGAhCAAAQgAAEIQAACEIAAoovo8iuAAAQgAAEIQAACEIAABCDQVAQQXUS3qRo0lYEABCAAAQhAAAIQgAAEIIDoIrr8CiAAAQhAAAIQgAAEIAABCDQVAUQX0W2qBk1lIAABCEAAAhCAAAQgAAEIILqILr8CCEAAAhCAAAQgAAEIQAACTUUA0UV0m6pBUxkIQAACEIAABCAAAQhAAAKILqLLrwACEIAABCAAAQhAAAIQgEBTEUB0Ed2matBUBgIQgAAEIAABCEAAAhCAAKKL6PIrgAAEIAABCEAAAhCAAAQg0FQEEF1Et6kaNJWBAAQgAAEIQAACEIAABCCA6CK6/AogAAEIQAACEIAABCAAAQg0FQFEF9FtqgZNZSAAAQhAAAIQgAAEIAABCCC6iC6/AghAAAIQgAAEIAABCEAAAk1FANFFdJuqQVMZCEAAAhCAAAQgAAEIQAACiC6iy68AAhCAAAQgAAEIQAACEIBAUxFAdBHdpmrQVAYCEIAABCAAAQhAAAIQgACii+jyK4AABCAAAQhAAAIQgAAEINBUBBBdRLepGjSVgQAEIAABCEAAAhCAAAQggOgiuvwKIAABCEAAAhCAAAQgAAEINBUBRBfRbaoGTWUgAAEIQAACEIAABCAAAQgguoguvwIIQAACEIAABCAAAQhAAAJNRQDRRXSbqkFTGQhAAAIQgAAEIAABCEAAAoguosuvAAIQgAAEIAABCEAAAhCAQFMRQHQR3aZq0FQGAhCAAAQgAAEIQAACEIAAoovo8iuAAAQgAAEIQAACEIAABCDQVAQQXUS3qRo0lYEABCAAAQhAAAIQgAAEIIDoIrr8CiAAAQhAAAIQgAAEIAABCDQVAUQX0W2qBk1lIAABCEAAAhCAAAQgAAEIILqILr8CCEAAAhCAAAQgAAEIzD6Br/1BZ+eaFZ3rlnZsWMynGgKd3cs716yY/W9iQaaI6CK6C7LhU2kIQAACEIAABCAAgTkjsPLetrZNv9/++O90bL+Fz3QJtPfd2r5h8Zx9OQslYUQX0V0obZ16QgACEIAABCAAAQjUgUDHuqWiuE70d+7dd+t93+QzDQJde7+ycsf43YH2LbetvLetDt9Xs2aB6CK6zdq2qRcEIAABCEAAAhCAQL0JdKxb2rH9lpU7blnz3O92H7yNT20EVu/9yrjr9t3q/EFnvb/CZskP0UV0m6UtUw8IQAACEIAABCAAgXklsPLetva+W1fuuOX+/VjuTCW/a9+tHdtvadv0+/P6lTZw5oguotvAzZeiQwACEIAABCAAAQgEh0D7hsUd22+5N35rbd2YHGURWNX/5Y7tt9CpW1sLR3QR3dpaDkdBAAIQgAAEIAABCEDgJgLtW2772s7fsWyN1ZoJ3PfN8U7d9v/rrpsos1IdAUQX0a2upRALAhCAAAQgAAEIQAACFQl0bL9l1Z9+uWav40A/gc4nb2kL/+eK1NlZngCii+iWbxlshQAEIAABCEAAAhCAQPUEVt7b1rH9ltW7v+K3NbbUTGDljlvaHv296r8FYioBRBfR1cZAAAIQgAAEIAABCEAAAjUSQHRrttkKByK6NTZHx0F0Ed2aGw8HQgACEIAABCAAAQhA4AYBEd1Gn2+59/vtvd9vV/Ps+fad5qpur1tg1Z9+mR7d2n5jiC6iW1vL4SgIQAACEIAABCAAAQh8QWDlvW2r+uf/Ad3e77d/761vvfred1597zvPvLZpukZaGPuo8PFHetSr733H87zYsYd0S50DDxy4rf2PGbr8RTOrPoToIrrVtxZiQgACEIAABCAAgUYlEA6Hh4aGMhNLKpWKRCKNWpOglnvlvW1rvjnPLxZKn3nFm1gKH3/3gXeOAAAURUlEQVSkgUeSX/TQTqmpQRPd7oO3Odv/Q1C/80CXC9FFdAPdQCkcBCAAAQhAAAIQmDmBoaEh0R7z3+Hh4ZmnTApKYOW9bVNq5JxGSL036Hneif91tOfbd0pG3/un5zzPO/eL0erzDaDoro7+R4VMoHoCiC6iW31rISYEIAABCEAAAhBoPAKJREL8Np/PJyeWfD4vW1KpVOPVJ6gl/toD8yy6+f9z4fq/j1lOe+LM0Ymxx/YY5p5v36k+bB4SRNF9BtGtpdEjuohuLe2GYyAAAQhAAAIQgECjECgWi57nFQoF13W1zKVSSTbqFgIzJDDvolsY+8gvuo8fvf/V976z9ej9arO932//4Oqo3OkofPzRd//pOd3VffC2AIruvf3/aYZfzcI8HNFFdBdmy6fWEIAABCAwPwTS6XQymZyfvMl1oRKQ53ITiYQJYGRkRFTH3Eh4JgTmXXRTExNHnThztMJDub3fby99Olb4+KPvvfWtePpP3v/X8WZgui6iO5M2EKhjEV1EN1ANsvEKUywWM5lM45WbEkNgOgQyO/Yeizw9nSOIC4FJCRSLxVwuN+ludkCgXgSy2Sw9urMLe95Ft+fbd37wi/Gu2tKnY5mfvzGQ7jO7aiWc+fANz/NMEy58fFM/MKI7u61iHlNDdBHdeWx+zZD1/3+u5IqtGb5I6lCRwNn+5zM79laMwk4IVEUgFouVSqV8Pl9hwttQKJSYWKLRqDnQ1MogFoslEol4PB6NRq1dFVY18QoFcBwnEolI4pWjaUbhcFjDBBqCQCwWk+5cntGdxe9r3kVXVPaFf9glujt+I+Pjj159b1B1t+fbd3qe996/juiW7oO3yUO8jyRvPGCM6M5ik5jfpBBdRHd+W2AD5x6LxZLJpNwMtkZDaa1c100kEumJJZlMTvdKyHXdeDyeTCbj8bimKYFwOCwXgv5/J7sulMIkEolYLGalxioEJiPQvbrrYHjLhd0vnO3fP/BQ78Y1D0wWU7ZvW7+xe3VX5Ti6d9v6jQfDW45Fnj7Uu/WZnpButwLP9ISObHnyWOTpg+EtkxVAynks8vSRLU9WU04rC1brQCAej8sjkWIXcpfQOiuGw+FcLqcRxrtlSiW/hyQSCSupYrE4pZG6rmslXiwWrQI4jhOLxeR5Ti1G2WhCLBaLDQ0NlUolhvbUoQnNShaZTCaXy+lXnE6nZyVZEhECARFdkdje77e/8A+75CVDmZ+/IRufeW2T9PeO2+znn9KnY+abchHdpmnPiC6i2zSNua4VGR4e1msgCfgvs/yXYp7nVfkmA9d19dkhz/P8l1Di2FYZZDUUKi8MWmZ/anVlR2aNQ+BQ7+NX9r1ofs7273+0e4O/BhvXPHCo9/ELu1+4su/Fbet7/BH8W45FombKV/a9eLZ/v+WxG9d0n+1/3op2qPdxK7UjW/6LFefKvhf90ayjWK0nAe09k+5cnfC2WCzqvblwOKz6kc/nc7mc2qz5TK9On1sqlbLZrLprqVTyW6tZRytxPXVrARzHCYfDmmluYpFoVuKu6w4NDWnWZc/SZtaEg0NAm4HcRpnsPnVwCtxYJQmU6GqfrfTuxo6Nz7osovvBL0Zffe871kcHMyO6jdXqKpQW0W0JzPKlCt8TuwJFQCUzn8+n0+lMJuO/YDKv6tLpdCqVKhQKEs3fO2HVzrzakys5/1/idDotf6SLvqWs6IbDYcmdCzKLNquTERh4qFfs8Wz//okO1RteemH3C2af7cHwlsyOvaZnViO6qtCZHXsP9W5V6bUGSKvlHtny5KHeraejz0pGB8Nb/r/2zue1jfSM41cnmzVpYEtpqSk92LHzktip4+ngpY1wOm4rl7qxvDbGJJablBAspYcQhHVwW18mF8NCFfAe5Zy2UOmcWrCXwKJTbjl4IRfpuoX5B2axn+Sbl3c0Y0V2pBnrOxjzaub98bwfvX79fud55xmYHawKpZamU8jGRG8JiCZsNBqYoGQS830fIhZ397AV2XEckZ2e58F+ESp6+FxI3wjvHPKgOczS+pwMG+AfRkG9cl3iytTKG4j4gmKeyL478L8bQyLmlifCvN4K3fWvbjX+fxhiChJXEpv/+avv+5tfr1uFwfTTEd/3//vOwWvklI8UuokYbO0YSaE7FJuDQredERuLPFhmwRpIX/y/FH+FvqqzbTu4YkMNekLq9zwvqG+RTUJotP94sH4PmwsyYGQigoCoypf3HkPWrt90DJ2ZmpyCxNXk5fEeXcmsB7jaTi9KVVCnweaUUiKqXz3YFMtTk5aUer50H31Zmk7JSb1+XGWiJwRk9qvVamgdUyJmpGAepRT0sChkqFNjepQpLmJKhNKGAUqp/f19uWOIkzJ1G/UEKxdnr+u6tm1T6IJe4hKidT3P0736ietFrAzurdCV52+//e4bQ75K9Kl8+bacl3ftwn8r6lf/SKEbq0F1EmModGOjc4codE8ykrtaNrisMdY6+Kh7APQVW4S58B7An9AysyzasEBsmQcnnz17Js8SBy1HHiZIwCAQFJBKKdmcDFWZmpyqrD4szM5b4xOQl8d6dJFz/be/Q6PW+IS0CG/tzvzKwcYWNK3kLMzOSzbZ5AwxbDQqQtrwD6MtJrpPQESsISBlRwwcqvICGCMkQalUkolLpEg2m5VsCwsLei9aClQ9Q0sVjfkWfmap5/Xr13rZoNDVr3Je1WkkK40BYAynZPUiVtZemXwbz8mQml37+O8X/5QAVJtfr69/dStXXij9719yBjZkdw8f0218/yZXXkg/HcmVFxrfv2l8/+bmP34qeWIodMfXL8Xqi06KMRS6Q7E5KHST8lejWq7YXNctlUqyREPYJ0OsYlNcRFdlRQUFi+WXUUSyYYFoXNU/YtOy4zhckOlkmI4m0FIrFmbnt9OLuZl0sCzkq6E5gzkhVuesaf2q4eYV560hVtGK2JCatHIz6WD0KXFHG2X1tpjuMgHs9cW2lzYNaOmJNcpiljPuLerZZN7G1CqXoHOwWVpuC/q+j8d9M5mMzJyGDxmVc14Fitgm8O/PGH7YjYUBENsuJMWwsevDNx5/CknZkwQCUMnfpu/73373je6wtQqD+SNxG5YhhkL36uqPkjIGYmUnhe5QbA4K3Vj9aUQZgxVbOzpTr0jUqb55T78qL7SQadd1XbTi+361WjU2Vkk2CcTiHR31er3lv2pxUIipUspY6hk28CMJCAFxqLYf1QkS9Fihi13KRugpQ1q3FKvYLN1SbIvl2M8ckYffcpcJZDIZkZoSbDlMNBpWQYhG58c9xLA7g0opmX4NVy3qx+Rp27bEU2g2m7VarVKpiNlGQd1Ozqs6jdim5XvUA2jbti2jotFoxNbsxBk2dn14/OEnPdG3RqPppyPZ3ZkvvrwBP62RwSoMfvHljezuDN4qFMwQnzOjty8mbjDEwWAK3aHYHBS6cfiLaMsGx3EQWarZbFarVdz7jygPR0HEUiyfz8uaKfhbX2Zha3Qwm3G7WpZxiNoi+Sl0I74mXgIBPeLxy3uPdzN3DV2KnJI4daFr6F5ppR2hKwVf3ntsWMiPvSWgz5y+7zebzWj5igDIxoZnoxeYWqPvPCIbGtXD/kHoSuBlzPAyZxohlw0DOK8aQOL5Ec5bCfGIWxi+70ePnHh2J7ZWjV0fHl0diI8+PBuWXM9fGJ6j0O1k1FPoDsXmoNDtZAT3qozjOAjYKKucoNNVtw3/YqP/oSJbo9GQhZfjOBJ3yvd9rM9s267Vao1Go1wuO0cHXmWkB9XAMg4FuSDTv5T+TMtGX/xG5KeWNFKTFuIhI7xTmNyNidDFq4YiXszbsrM82R0CxWLR2K7Ssl1MX3pIv2BOuGQjNi1LKcS+EpdyrVaDh9n3fTyiCXUtE2y5XIaDN+yGJufV4PcSzzPFYjF4C8O4OxxPyxNk1dj14cvLAzFx6p4NlWsVBq/cOUeh29lfAYVubHQug1F1NoR7WkrkLv5xvn792thgLNbhEa+ITcuSE2FXdPcC1mfRbg2IZMha2c6n+2+5IOvpeIlF46JX8buduMSpSWtnfkXcpPK2W8Rh1rsUB6GLVw1tpxd125iOGwHHceSpCv0WHoxsU+Viao2eG1FtJpPBdC1yFyGdMXVjLyvO4BVHYa1wXgXhRCSy2Wzx6FhbW8O3nAjLE2HkW6H7IBa7l8+M0B1bHaDQ7Wz8U+hS6HY2cljqPQHbtvGEWPDeMJ5MC5PB7ytSCkLX2N4sTt3o54iwn1k8G3B0FIvFtXeHLMhqtdra2poRKEs3g+kzTGA3c1f/+aCnWPFsbUsZ2R2hO/frz0WlBy2nyo3tuJ2dnZVJSLcQt/CMO4C2bYsG9jwvYpqC67WdqVVvV3SO3EyUqRsKNixkUVAP6xVS6Oo0mO5zAhS6H0NdU+h2/GdFoUuh2/Hg6dOC+Xy+dHTo/Q9bsbXpl0BVUKcdCF2llL7e0jcHynnjt+7phQFMkIAQWJpObacXg4JWXi/UMppx+0I3N5MWsWrsgjbeXfR8+b44kPUvBa3oryZSShVm/yJ17syv6PmZjgOBsFt4ImihM8VUPKyhb2wxevGhU6tRXD4iVjN2wYQJ3TD7pR594m3ZEE+SQF8RGFk8f/Xe+Y+h9/qzzqkng5eXB0ZufdZXo+i0OkuhOxSbg8/ontao/rj1hN3alw1v+oqtg6UYduIZnmGjcvFCeJ6ndxVl5THgvb29euCQBZnnefV63WhCr4ppEsAbgAwt2jISsuCCBD026jJy6l5ZhEo23qN7sLGl75SGYfqrifA2Xbzgl99grAhks1mZfPQgBdCZukd3b29PckJ8BjvSwdQarCSbzWKXMq5iX4w+kyNiszHlopQYzFuHAMJEnxMY/tPF0ZWBqSeD/alLT73XExsXLi8PXLZ/0efjqrPuU+gOxeag0O1sDHe7FFZse3t7aBvRkhEQpeOlmHhi9VcgBB++xRl91Yjt04iqAvOQ4IIMKJiIJgAtuvPn9w7SOevttuGWT/aiyLFCVykV9Axj4zGkNSqEDdb4RDCi8pz1udT2Yu2RLomjO8irXSaAh2Or1WqxWHRdV3Sm/owuAiN7nlcJHHJvDq+EkYdsA7kqEX5gpVSxWKxUKtjw4nmesX0GtzKr1arrunroLEzvBjrOqwYQfuxzAqPWLy8vD1z7G526pyD1p54Mjq4OjNy+0OeDquPuU+jGRucyGFXHo7jrBbFIajabYWsmPU/AsVrXBaphPoS0VI5dfHhFkORHHJd6va7bEO1V4ILMoM2PEQQqqw9lM7C8W2g3c1f05MHGFrSoXhy6tB2hW/j9253GUjnaMiQ0zj9fur+buYuAWHAFQ/oebGy9uPuosvrQ+DF2OOsGM91NAsa7hWQuMt7sgmkTV/WEeFmxu1i/pKcjXMFKKb2Jer1uqFyllG3bRkR9qbxarYbhkgzRc29YWZ4ngTNJYPiPlw5jLzMkVeFEWnfqyeDYnXOH7tzpn5/JcdKFTlHoDsXmoEe3CwP+dJpwHGd/f18WN/jdaDT0uClwViCDnoheEuXzeXg/pFRwQdbShlqtFh1DUmqLbv10GLGW5BOwxieMdwsdbGy9erAZ9tqeDxK6SimEthI5fbCxVVl9aLhkU5MWtK5ke/VgE3ublVJ4rS4qMRKQxMn/Qs5CD4rFIkLrlUolw/taLBZL4YcoWNu2w7McXtHnYRU4XNctl8uu6wYlrp43m82Wy+V6vV6r1crlsmGnnlMdBREslUr5fN44z48k0LcErlwbHZk/fLL06r3zNx5/euq7efuhwl/9/cLo6sDh07mpn/TtQDp5xyl0h2JzUOiefDx3tYZMJiMb7SSIsaEws5FH9BpLvAq5XK5UKrmuG7HGymQyrusemw1cxKhjW0d+JkggNWmJIn2x9mhp+qYhRHU+1vjE0vTN6Dx6/iOZauVm0tvpxcLsfIQfeGn6ZmF2fju9mJtJGwagUWk6+NvIbxjAj90nIC5Z3m7rPnm2SALdJHDl2ujwrc8OvZHLA1funFNr/PkAAqMrRxJ38TwfzT3hoKXQjY3O5dblE47lXhSXFVvEPuReGMU2SeCUCYjX1NhUfMptsLq+IeA4DoPh9c23zY72O4GxiZGRWz8enrs4cvsT/rRPYPgPl0Z+8zN1dazfB9CJ+0+hS6F74kHUxxXIJrpsNtvHDNj1s0/AGp/YTi+G7Vg++/1nD0mABEiABEiABBJIgEKXQjeBw5YmkwAJkAAJkAAJkAAJkAAJkEA4AQpdCt3w0cErJEACJEACJEACJEACJEACJJBAAhS6FLoJHLY0mQRIgARIgARIgARIgARIgATCCVDoUuiGjw5eIQESIAESIAESIAESIAESIIEEEqDQpdBN4LClySRAAiRAAiRAAiRAAiRAAiQQToBCl0I3fHTwCgmQAAmQAAmQAAmQAAmQAAkkkACFLoVuAoctTSYBEiABEiABEiABEiABEiCBcAIUuhS64aODV0iABEiABEiABEiABEiABEgggQQodCl0EzhsaTIJkAAJkAAJkAAJkAAJkAAJhBOg0KXQDR8dvEICJEACJEACJEACJEACJEACCSRAoUuhm8BhS5NJgARIgARIgARIgARIgARIIJwAhS6Fbvjo4BUSIAESIAESIAESIAESIAESSCABCl0K3QQOW5pMAiRAAiRAAiRAAiRAAiRAAuEEKHQpdMNHB6+QAAmQAAmQAAmQAAmQAAmQQAIJUOhS6CZw2NJkEiABEiABEiABEiABEiABEggnQKFLoRs+OniFBEiABEiABEiABEiABEiABBJIgEKXQjeBw5YmkwAJkAAJkAAJkAAJkAAJkEA4AQpdCt3w0cErJEACJBAgYI1P5GbSgdOtTyxNp5amU8a13Ex6O72o/6Qmp4w8SinJZo1P4NLSdGpnfmVnfqVlfmRjggRIgARIgARIgAQodOMjdH8AnCukpScyiWIAAAAASUVORK5CYII=;" parent="1" vertex="1">
          <mxGeometry x="1174.03" y="1730" width="192" height="55.09" as="geometry" />
        </mxCell>
        <mxCell id="LCPFL02DWOrMatiKx--p-33" style="edgeStyle=orthogonalEdgeStyle;rounded=0;orthogonalLoop=1;jettySize=auto;html=1;exitX=0.5;exitY=0;exitDx=0;exitDy=0;entryX=0;entryY=0.5;entryDx=0;entryDy=0;" parent="1" source="LCPFL02DWOrMatiKx--p-31" target="LCPFL02DWOrMatiKx--p-17" edge="1">
          <mxGeometry relative="1" as="geometry" />
        </mxCell>
        <mxCell id="LCPFL02DWOrMatiKx--p-31" value="Loop until exit&amp;nbsp;&lt;span style=&quot;background-color: initial;&quot;&gt;conditions&lt;/span&gt;&lt;div&gt;&lt;span style=&quot;background-color: initial;&quot;&gt;are met.&lt;/span&gt;&lt;/div&gt;" style="shape=process;whiteSpace=wrap;html=1;backgroundOutline=1;" parent="1" vertex="1">
          <mxGeometry x="390.03" y="1460" width="200" height="60" as="geometry" />
        </mxCell>
        <mxCell id="LCPFL02DWOrMatiKx--p-44" style="edgeStyle=orthogonalEdgeStyle;rounded=0;orthogonalLoop=1;jettySize=auto;html=1;exitX=0.5;exitY=1;exitDx=0;exitDy=0;entryX=0.5;entryY=0;entryDx=0;entryDy=0;" parent="1" source="LCPFL02DWOrMatiKx--p-35" target="LCPFL02DWOrMatiKx--p-43" edge="1">
          <mxGeometry relative="1" as="geometry" />
        </mxCell>
        <mxCell id="LCPFL02DWOrMatiKx--p-35" value="&lt;p&gt;&lt;b&gt;Sell&lt;/b&gt;&lt;/p&gt;&lt;p&gt;&lt;/p&gt;" style="rounded=1;whiteSpace=wrap;html=1;verticalAlign=top;" parent="1" vertex="1">
          <mxGeometry x="790.03" y="1760" width="240" height="50" as="geometry" />
        </mxCell>
        <mxCell id="LCPFL02DWOrMatiKx--p-37" value="" style="shape=image;verticalLabelPosition=bottom;labelBackgroundColor=default;verticalAlign=top;aspect=fixed;imageAspect=0;image=data:image/png,iVBORw0KGgoAAAANSUhEUgAAAfQAAAILCAIAAACRmPmMAAAgAElEQVR4Ae2d729b15nn5/8QBOidA8Ha6Y49Sond7bh25WgxnnDA5AVZGk1EmONgyYb11pQrGA4dycmSrtSF6Zpe13RHVUFhrQF8g1iwzWSkyYrBSDWuAtGxaHXlrvgifMG3/ge8JB/pycnlD9GOeX8934Bojy7PPec8n3Pv55773Cv5rw7iPxAAARAAAdcR+CvXRYSAQAAEQAAEDkLuOAhAAARAwIUEIHcXTipCAgEQAAHIHccACIAACLiQAOTuwklFSCAAAiAAueMYAAEQAAEXEoDcXTipCAkEQAAEIHccAyAAAiDgQgKQuwsnFSGBAAiAAOSOYwAEQAAEXEgAcnfhpCIkEAABEIDccQyAAAiAgAsJQO4unFSEBAIgAAKQO44BEAABEHAhAcjdhZOKkEAABEAAcscxAAIgAAIuJAC5u3BSERIIgAAIQO44BkAABEDAhQQgdxdOKkICARAAAcgdxwAIgAAIuJAA5O7CSUVIIAACIAC54xgAARAAARcSgNxdOKkICQRAAAQgdxwDIAACIOBCApC7CycVIYEACIAA5I5jAARAAARcSABy72pSz58/r+39l0wmW+4zNze3V0V79913W9bBRhAAARAwh4Dd5e7xeI7v/efxeMyB0tzLJ5988nzvv4cPHzZXOHjwYKVS2avy/Pz58y3rYCMIgAAImEPAjnL3eDzvv/++pmmqLsmbz549W1paMl+dkLs5hyN6AQEQeFUEbCf3ZDL57NkzXgK3K1QqFTMVD7m/qgMO7YAACJhDwEZyf+ONNx4+fNjO5i23P3ny5I033jCBFORuAmR0AQIg8AoJ2EXuHo+nXRJmbm7u2rVrc3NzS0tL33zzjcHylUrFhFw85P4Kjzk0BQIgYAIBu8hdtefz58+/+eabdi+cjI2NGRTf7gnnK8SnDq9dd+rFycyU0SsME02BAAi4hoAt5D42Nqaux588ebLvYly17fPnPX87Re0OcnfN0Y9AQMDFBGwhd1Wdz58/P378+L7EPR6Pun5vJ9x92+mygjrCdn1h5d4lTFQDARAwgYAt5P7kyRNeuS8tLXUZdjKZ5L2eP3/+1ltvdbnjS1SD3F8CGnYBARCwkIAt5K46+tq1a13iOH78uLpjl2nut99++/zef++//36XL9tA7l1OCqqBAAjYhIDt5D43N9c9GlXuna8KHo8nk8m0fIP+yZMn+14YIPfuJwU1QQAE7EDAFnJXs9XtMtotYe39YYL6/3d4BtvNL0ZVKpUOq3jIvSV/bAQBELAtAVvIfWlpSV2Dt3sJ8uUgZjIZtfEO5Q5+h9xfDj72AgEQsIqALeRueBXy2bNn++ZJuuRlMPuzZ8+uXbv27rvvHj9+/O233/75z39u+J3YJ0+etGwZcm+JBRtBAARsS8AWcj948KBBss+fP//kk0865Em6AfrGG2+o6/R2r88bLgAtc/eQezfAUQcEQMA+BOwid8N76yzlhw8fnj9//uUsr14wvvnmmw5J+bm5Oe7x2bNnzdMDuTczwRYQAAE7E7CL3A8ePHj8+HFVx2xbKjx8+DCZTHZveUOqp3Me3+PxqN01V4bc7XwQY2wgAALNBGwkdxrc+fPn1V89VZ1L5W7eXDx48GA3OlZxqNeV5tcxu2lNfefnVT0zUEeIMgiAAAh0T8B2cqclfDKZ7Kz4ff+eu6radv8wnopJ/X3X5tcxIXeVFcogAAL2J2BHuTO1n//855qmtfzNI1rFt3t58e2331aX/M1pFu6CC+fPn+ddvvnmG95OBcjdAAQ/ggAI2JyAreXO7MbGxjRNa7mWr1Qqb7/9NtekgiHhvrS0xP90dbuC4V17Q4OQuwEIfgQBELA5AWfInSE2v5n+/Pnz5vW7ugzn9fgLFbhHKkDuBiD4EQRAwOYEHCZ3ovn+++8bVvGGvyUJudv8sMPwQAAEek3AkXKnh64Gv6uvsRvkXnnx/wzcsXI3AMGPIAACNifgVLkfPHjQkFhXX4kxyP37zwHk/v0ZogUQAAEzCVgsd4/Hc035r/nRaAcWht88Ul9Of//999UMezf/tFOHjrp8a159+RLvuXfmiW9BAAR6TcBiuR88eFC1cMu/69IBgepTTdO4puHf8Xj//ff5q5crYOX+ctywFwiAgFUErJe7Kujm3x7qzEV9BV6V+8GDB9WvPvnkk87t7Pst5L4vIlQAARCwFQHr5a7+0a7nz593/9djDL+ppObcDx48+NLNtpweyL0lFmwEARCwLQHr5W54LtruD/M2E1SF2/wPZL/11ltqwqebe4JMJtP8yjz1q/bVrin1FgQ59+b5whYQAAEzCVgv9+ZV9pMnTzqv3z0ezx//+Md93W1YvHdOzvBfda9UKs05esjdzIMSfYEACHx/AraQu8fjefLkiSpr+sc63n33XfXtdXq9ndbXauVnz561fB+m+W/Et/xzY2NjY+qfhHz+/Dnk/v0PLLQAAiBgLQFbyJ2s3ex3MvizZ8/ol5BUoavlDjmQ48ePG37X6fnz58+ePXvY+O/Jkyfqc1dqs+UbO1i5W3uYoncQAIEXJWAXudO4OTeiurtD+Ztvvtn31fiWfm/Z5rNnzwxPZZkm5M4oUAABEHAEAXvJnZbw7f4ApGrkJ0+eXLt2zZC06UB8338D5OHDhy1zO9Qm5N6BLb4CARCwIQHbyZ0ZjY2NJZNJTdMohfLw4UP6y73JZHLf1To3YiiMjY1du3ZtaWmJ2uQG971IvPXWW2N7/7Xrfe/7+v/v26BhYPgRBEAABF4tAfvK/dXGidZAAARAQBQByF3UdCNYEAABKQQgdykzjThBAAREEYDcRU03ggUBEJBCAHKXMtOIEwRAQBQByF3UdCNYEAABKQQgdykzjThBAAREEYDcRU03ggUBEJBCAHKXMtOIEwRAQBQByF3UdCNYEAABKQQgdykzjThBAAREEYDcRU03ggUBEJBCAHKXMtOIEwRAQBQByF3UdCNYEAABKQQgdykzjThBAAREEYDcRU03ggUBEJBCAHKXMtOIEwRAQBQByF3UdCNYEAABKQQgdykzjThBAAREEYDcRU03ggUBEJBCAHKXMtOIEwRAQBQByF3UdCNYEAABKQQgdykzjThBAAREEYDcRU03ggUBEJBCAHKXMtOIEwRAQBQByF3UdCNYEAABKQQgdykzjThBAAREEYDcRU03ggUBEJBCAHKXMtOIEwRAQBQByF3UdCNYEAABKQQgdykzjThBAAREEYDcRU03ggUBEJBCAHKXMtOIEwRAQBQByF3UdCNYEAABKQQgdykzjThBAAREEYDcRU03ggUBEJBCAHKXMtOIEwRAQBQByF3UdCNYEAABKQQgdykzjThBAAREEYDcRU03ggUBEJBCAHKXMtOIEwRAQBQByF3UdCNYEAABKQQgdykzjThBAAREEYDcRU03ggUBEJBCAHKXMtOIEwRAQBQByF3UdCNYEAABKQQgdykzjThBAAREEYDcRU03ggUBEJBCAHKXMtOIEwRAQBQByF3UdCNYEAABKQQgdykzjThBAAREEYDcRU03ggUBEJBCAHKXMtOIEwRAQBQByF3UdCNYEAABKQQgdykzjThBAAREEYDcRU03ggUBEJBCAHKXMtOIEwRAQBQByF3UdCNYEAABKQQgdykzjThBAAREEYDcRU03ggUBEJBCAHKXMtOIEwRAQBQBi+V+7NhPfnsl89XDR/iAQO8I3Lv72ZtvekWd2AgWBKyU+7FjP/nq4aNKuYoPCJhA4EzslzjhQUAOASvlPntrzoRTGl2AABH48+ZfXn/9h3LObUQqnICVcv/z5l/gHRAwkwCSM8J9Jyp8K+Vu5lmNvkCgUq7+NBAUdXojWMkEIHdk/AURgNwly05a7JC7ILVh8Q65SxOc5Hghd8hdEAHIXbLspMUOuQtSG1bukLs0wUmOF3KH3AURgNwly05a7JC7ILVh5Q65SxOc5HgdJvft0s5sdn4qkcqks4/WSx1sFYvEF+a1DhUq5epqQV/Kr3Suwz0uzGvbpR2unEln+bNW0CvlalHfnE6m9+2UW9i3MJvNUcv71myu8H32bW7NNVsgd8mykxa7w+Qe9IdmUumFnJZJZ08GQh383lnui9qDWCTu8wamEqnO5gqHIjOp9KKWnxhPxKJxqlzUSz5vwCD38FhkrbA+k0zPZucr5epC7jsXg869tPz2+n4XsJZ70caFnLa833Wrw+5u/QpylyY4yfE6Se5L+ZWT/hB7ZzqZnk6m6cel/MrtnLaoPeBvVblvl3boW74YLGoPlvOF2zlNlftaQecK3KzPG6DydmlndMRLFZbyK7HoOPdFBdqylF/JpLNFfXNi/KKhgvrjo/XSo/USDZs73S7t0M0E3U+sFnS+V2gOoVKu0u4tbz5WlVh4X3UAMsuQu2TZSYvdSXInvTbnPRZy2slAKJPOqotrlntR3wz6Q9PJ9GQieTIQYl1WylWD3GezuczVbDvrFfXNk4HdS0vtKhIORWaz82p2KBaN0xgW5rWJeIKV3bLB2o503zCZSPq8AVpl385poyPeWHQ8k64PIxaJL+cLlPBpDmE2m6Oog/5QJn3T0AuHv1rQqdpkIhkORQzVpP0IuUsTnOR4nST3Srm6qD0I+kMnA6GpRIrtuZDTODfNi2u223QyzcvziXiCciYkNYPcO5suFon/4VY930LDOBkIzWbnSc08kkUtv5wvLOS06+0vEtRC4zKwu7TPpLOU8Lmd08KhKA+D5T6ZSPIlbSqRonLQv5uV2i7t+LwB9aJFFwaqlkln+f5mNjtvqMZ9CSlA7pJlJy12h8mdHLScL5BV1SeZsUg8Fok3yz0WiYdDUfqWrgossu7lPp28MpPaTQHx7lQwXDCK+mYsGm+kZRK1tD5737BXJp3lSw6nm27nNDXbw3IPj0VoCc+N1LIuPm+AglKj5gp8baMbl1gkPpudbzcY3sv1BchdmuAkx+skuS/nV9SsOi/JY5E4r5Sb5U7ypRz3o/WSunTtUu6Z9M2J8YQqPjUbri6NK+XqZCK5VlgnrS/nV9jg6u6VctUgd1qwt5N70B9a1PJqC/REl4NqtjbLnfZazhdmUmlDVkptUEgZcpcsO2mxO0nulFtnkU0mkpRwYPetFfRmuXPSg55A8u7NOfdafkP9lnxXS2eHQxH1klApV6eTaV7IB/0hzpmsFnSyeSwSp6ej9FiVLKwKVB3VZCJJe7WTeyad5e4m4glOy/zL3rue6jWPemG5TyaSnIlqJPfrSXyxH8hdmuAkx+skuVfK1etXs0F/iN5ijEXHybm1d7pHR7zhUCQWHeeHk2y37dIOPUqlCqq+DSv3yUSK09OkP3qEW8toB/0h+pAoOdfh8wbURX1R36T2Z7O5WLSeJiLtTu4lytmqtUemjfHEw6EIv9PZTu7bpZ2JeD3JE/SHphJJamStoDMKvnHh9jl8Hqq6L1eTVoDcJctOWuwOkzvJyJBdqZSrLRfdqrn2rUCVDSt0tYXmcvMw1DrbpR1urTlpzmkZ9WKj7t5cVhvkbzuP4UWrcX23FiB3aYKTHK8j5e4s9WyXdvg1Gx45y523oGACAchdsuykxQ65W5OANjwcNsFr6AL/EpM0uwmPF3K3Ru5QrSUEsHIX7jtR4UPukLsgApC7KLsJDxZyF6Q2SxbLtuoUchfuO1HhQ+6QuyACkLsouwkPFnIXpDZbLaItGQzkLtx3osKH3CF3QQQgd1F2Ex6sa+X+6Z17M5evXLxw6XeZ31uySESnNiQAuQv3najw3Sn3ixcu9fcNeE/4gv53hg97hg95th4/taFrMCSTCUDuouwmPFgXyl1f3ejvG/jN5d2/0KuvbQweGPrwg0smewTd2ZAA5C7cd6LCd5Lcv/j8y4sXLvEaXF/duHjhkr62YZDIjcyt/r4BrlYpV48eGTl9Svo/QmSgJPNHyF2U3YQH6yS5bz1+OnzYw5oePuQZPuzpRlLDhzxnz5zrpibquJsA5C7cd6LCd5LcK+Xq3Tv3+/sG7mr3Zy5f6e8baF62N7vp4oVLg68NdVOzeV9scRkByF2U3YQH6zC5V8rVs2fOHT0y0kijf7Svej69c0/Nv+9bHxXcTQByF+47UeE7T+5bj5/29w0MHhjaV0P6Kj1K3f8asG9TqOAOApC7KLsJD9Z5cqeEDCVnOhhHX90YPuT58AOYXdDvKHU4HugryF2470SF7zC582L8vXCkw9vrZPb3wnhDBmb/DgHIXZTdhAfrMLl7T/joDZmtx08HDwydPfOr5sXa1tdPhw95Bg8MfardUz/qy5HNe2GLBAKQu3DfiQrfSXKnhMxd7T5paCZVf2GGf2Q30UPU/r4Bw6e5Ju+CghACkLsouwkP1klyFyIghNk7ApC7cN+JCh9y/05OtndaQct2IAC5i7Kb8GAhd8hdEAHIXbjvRIUPuQtSmx3WztaOAXIXZTfhwULukLsgApC7cN+JCh9yF6Q2a1fNdugdchdlN+HBQu6QuyACkLtw34kKH3IXpDY7rJ2tHQPkLspuwoOF3CF3QQQgd+G+ExU+5C5Ibdaumu3QO+Quym7Cg4XcIXdBBCB34b4TFb6Vcv/z5l/ssJrDGOQQgNxF2U14sFbK/bdXMnK0gkgtJ7D+p6Lwsx3hiyJgpdzfOD767//nYXG9hA8ImEDgv52OiDq3EaxwAlbK/Sc//nt8QMBMAof+5rDwEx7hyyFgpdzlUEakIAACIGAyAcjdZODoDgRAAATMIAC5m0EZfYAACICAyQQgd5OBozsQAAEQMIMA5G4GZfQBAiAAAiYTgNxNBo7uQAAEQMAMApC7GZTRBwiAAAiYTAByNxk4ugMBEAABMwhA7mZQRh8gAAIgYDIByN1k4OgOBEAABMwgALmbQRl9gAAIgIDJBCB3k4GjOxAAARAwgwDkbgZl9AECIAACJhOA3E0Gju5AAARAwAwCkLsZlNEHCIAACJhMAHI3GTi6AwEQAAEzCEDuZlBGHyAAAiBgMgHI3WTg6A4EQAAEzCAAuZtBGX2AAAiAgMkEIHeTgaM7EAABEDCDAORuBmX0AQIgAAImE4DcTQaO7kAABEDADAK2kPuxo8d+GgjiAwK9IOB902vGmYQ+QMBmBCyW+z+dOv3Vw0eVchUfEOgpgeTHv7bZqYfhgEBvCVgp92Ag2NPzGY2DgErgt1cyvT2Z0DoI2ImAlXK/f/cz9dxDGQR6TeD1139op7MPYwGBHhKwUu69PpPRPggYCPw0EOzhyYSmQcBOBCB3pPsFEYDc7SQfjKW3BCB3QWozLGMF/gi591YnaN1OBCB3yF0QAcjdTvLBWHpLAHIXpDaBS3VDyJB7b3WC1u1EAHKH3AURgNztJB+MpbcEIHdBajMsYwX+CLn3Vido3U4EXCv31YL+aL0k0F8IuQMByN1O8sFYekvAYXJfK+ixSDzoD8Ui8YV5rcNp3LlCUd+cSqSC/lA4FFnUHnRoR+2RrxbbpZ1YJM6fRS1fKVdr4wmHIrXhbZd2OjS471eZdHY2O79vtZYVZrO5TDrb8itsrJSrkHtvdYLW7UTASXIv6ps+b2A5X9gu7awV9KA/tJxfaeesznKPReLXr2a3SzvUZgcdB/0hsv9sNufzBqi71YJ+MhBazhfoQ7vHIvFKubqoPSA1Z9I3242t8/aivrlW0DvXafft99m3XZtu2g6520k+GEtvCThJ7kv5lZP+ELtmNpvjFW4mfXMinphOpnlxrcp9Kb8ylUhNxBN8MYhFx1no4bHIcr5QX3rnNMPdwGpBn0qkuMfRES/ttZRfiUXHeTsVaMtSfiWTzi7ktJlU2lChUq6uFvTGwjxHo6XWtks7U4nUbLa+kS4PfDOx1hjARDyhDmxRezCVSKnBckeL2gOuyVHzFq4mtgC591YnaN1OBJwk9+3STtAfmkqk2OAkqenklYnxxFpBn83mTgZ27c9yL+qbJwOhRS2/nC/4vAHDori21B0d8VKDzXJXJXhXe8CN387tZmC4l0q5SnYOhyL1TE60dXJmKb8yOuK9fjW7nC9MjCdi0fpiv6iXRke8U4nUQq6eaMqks5RaobsKGnk4FCFHL+Q0CoeC5UsUDTWTztLVyBA1X9XUiASWIXc7yQdj6S0BJ8m94cHNyUSylh5h2VXK1Zr06VNcr1uSTM3anUwkeYE/nUxzmdQWDkWuX90/SV3UN4P+EF8YlvMr169mH62XFnJaI1O0mx0i1WbSNxfmNRqSQaDqzUctuUS3AiR3rslyZ1NXytXl/MofbtUT8XyfUSlXY1HjgwfeZTm/4vMGCMVqQTdcA7gvaQXIvbc6Qet2IuAwubOMFnJa0B+ixSytlCfGE1OJVLPcY5G4zxsI+kP0mVayJdPJK92Yne4YyK08AC5MJ9PTyW8zMPSodlF7UMv8ND8VUOVeKVdptO3kPplINT8drV0POJbG84D6s1z+sNwbdxLz9MR4NpvjCsILkLud5IOx9JaAk+S+MK+psmORqYvZZrlPxBOG1ToJLpO+OZVIdiO75tX9Qk7jVbxB7uFQ5NF6iR6uFvXSxPhFtQtV7vuu3NWWt0s7q42nrM0XDLV9ZvJovUTL9qK+GQ5FWhJQdxRShtx7qxO0bicCTpI7pRoW5rXiemkpv8Ir91g0PpNKF9dL08krzXKnJPWj9dJ2aWc6eYWenWbSN08GQsX1En0oa7FW0PlJJstuMpGcSiQNNTPp7MR44tF6qZbxaNi2/jxWTZ5MxHe/VZ/HVsrVpUa2ZFHLb5d2Mumb9Ay23cqd4qWkysR4YraRlqld3uj60Qjn2wfINACWey19z9WaszccnbQC5G4n+WAsvSXgJLlTzn1iPFF/zz06znmSor5JOZA/3Jon51bK1elkmp8iLuQ0qsBJmMbDzPFYdPdDeZXZbM7wYklRL3EdKtAzz0q5WmsqHIqGQ1EehipKzhTR8pm/IrnPJNPhUDQWHd9bXNd74Tr157qNJ6v05oxh5J27XshpvEivFcKhaNAf4qi5C7EFyL23OkHrdiLgMLk73UpqWsbpsThx/JC7neSDsfSWAOT+7dNIE2wFuZsAuUMXkHtvdYLW7UQAcjdV7pVy1ZCo6WAifPXKCUDudpIPxtJbApC72XJ/5cJCg90TgNx7qxO0bicCkDvkLogA5G4n+WAsvSUAuQtSW/crXLfWhNx7qxO0bicCkDvkLogA5G4n+WAsvSUAuQtSm1vX493HBbn3Vido3U4EIHfIXRAByN1O8sFYekvAzXLf+vrpzOUr83MLhpWdvrpx+lRk+LDHe8L3u8zvDd/iRxcTgNx7qxO0bicC7pT7p3fueU/4+vsG+vsGLl64pNpKX90YPuQ5emTkRubWzOUrgweGPvzgOxXUyii7jADkbif5YCy9JeBOuR89MnL6VOSudn/4sMcgdxK6vrZB2rp44dLggaGtx09dZjGE05IA5N5bnaB1OxFwktzvave9J3x3tft03s7PLag/qiczy7pZ7t4TPu8JH1f+t88K/X0DX3z+JW9BwcUEIHc7yQdj6S0BJ8m9Uq6ymim78l440tlELeV++tS3e+mrG/19Azcytzq3g2/dQQBy761O0LqdCDhM7vraxuCBoZnLV+iJKGdX2qkHcm9HRuZ2yN1O8sFYekvAYXKvlKszqfpT0P6+gW5edIHcZUq8XdSQe291gtbtRMB5ct/6+unggaFjR463O4HV7V3Kff6Pxtcl1UZQdg0ByN1O8sFYekvAeXI/e+bc8GEPJWf2lU6z3IP+n6kXBnqgyg9p920QFRxNAHLvrU7Qup0IOEzun965RwkZeoVRX919o7GdcZrlTq9C8us0M5ev9PcN8I/t2sF2dxCA3O0kH4yltwScJPetr58OH/LwGzJHj4yoLzW2tE+z3LcePx0+7Bk+5Jm5fOXihUv9fQMffvBRy32x0X0EIPfe6gSt24mAk+R+V7t/+lSE35D54vMvT5+KdH5F/eyZX7X48wNrG++FI3Rt+M3ltPsUhojaEYDc7SQfjKW3BJwk93ZnLLaDQJcEIPfe6gSt24kA5C7obyJ2aUAXV4Pc7SQfjKW3BCB3yF0QAci9tzpB63YiALkLUpuLl+Rdhga520k+GEtvCUDukLsgApB7b3WC1u1EAHIXpLYul7curga520k+GEtvCUDukLsgApB7b3WC1u1EAHIXpDYXL8m7DA1yt5N8MJbeEoDcIXdBBCD33uoErduJAOQuSG1dLm9dXA1yt5N8MJbeEoDcIXdBBCD33uoErduJgJVy/+ph0cWLRIRmQwJvvum109mHsYBADwlYKffUx5dteP5jSG4lsP6nYg/PJDQNAjYjYKXch//Wk/6f/+t2TsMHBEwg8A9//49DQ//BZicghgMCvSJgpdx/9J9+jA8ImEngP/7gb3p1JqFdELAZASvlbjMUGA4IgAAIuIcA5O6euUQkIAACIMAEIHdGgQIIgAAIuIcA5O6euUQkIAACIMAEIHdGgQIIgAAIuIcA5O6euUQkIAACIMAEIHdGgQIIgAAIuIcA5O6euUQkIAACIMAEIHdGgQIIgAAIuIcA5O6euUQkIAACIMAEIHdGgQIIgAAIuIcA5O6euUQkIAACIMAEIHdGgQIIgAAIuIcA5O6euUQkIAACIMAEIHdGgQIIgAAIuIcA5O6euUQkIAACIMAEIHdGgQIIgAAIuIcA5O6euUQkIAACIMAEIHdGgQIIgAAIuIcA5O6euUQkIAACIMAEIHdGgQIIgAAIuIcA5O6euUQkIAACIMAErJd7MBD84Hwi9fFlfECgRwR+GgjyEY8CCAghYLHcUx//ulKu4gMCvSbw1Z8eHTv6EyFnNcIEgYMHD1op9//+i1/2+pRG+yDABO7d/QznPAjIIWCl3AvL/84nHgogYAKBY0ePyTm3EalwAlbK3YSTGV2AgEoAyXfhvhMVPuSOjL8gApC7KLsJDxZyF6Q2dQ0rswy5C/edqLpOt00AACAASURBVPAhd8hdEAHIXZTdhAcLuQtSm8zVuho15C7cd6LCh9whd0EEIHdRdhMeLOQuSG3qGlZmGXIX7jtR4TtP7tulneJ6abu001lPCzltraB3rtNNO5VytcseK+Vqlw12HtV2aWff6Nq18H32bdemm7ZD7qLsJjxYh8l9NpsL+kOx6HjQH5pJpTt4JxaJL8xr7SqsFfSgPxQORYP+UCZ9s121Srmq9jibnaea26Wd0REvf6ijTPrmVCIVDkXoovLSgp5MpKaTnULrMNpMOjsxfrFDBeFfQe7CfScqfCfJvahv+ryBR+slMlQsGmfbNjurs9zDY5FFLU+rcrVNQztFfXN0xEs9LudXfN4AKXu1oIdDUUPlWHS8Uq4uag8y6WylXI1F4y/td0PLL/SjJZ2+0AgtrAy5i7Kb8GCdJPfVgs56rZSrawV9OV+oJ0P0zVgkHg5FTwZC/7K3WlflTqtvdZHOV4hKuerzBqidTDpruFoU9U11y+iIl9S5lF+p3T0YciC1+4Dt0s5CTsuks5n0zZb3DUv5lYnxRCwS93kD4VCEhlHUS0F/aDKRHB3xNu4V5rnT2Wyudu3xeQNTiRRbezp5JegPqcGyLmez87zq56g73+LwvhIKkLtw34kK30lyr5SrE+OJk4HQwrym2nk6mb5+tb5YpqU9SZDlvpDTTgZCJOJwKLKcXyGLFfXN2zltOnllKpHkLR3S9LPZXC3rQjVv57TaZSboD42OeFmdawV9Ip6YGE+sFXRaxTfrcim/wrcCM8l0LBpvDLs0OuL9w615CqpxbaiHs5RfORkI0caZZJpuCBoDrg9DDZY7yqSzNEjal6Om2xSuJrYAuYuym/BgHSb3Srm6kNNqAlWtWjfdeul2Trud01idLPdYJD6TSi/lV5byK1NKOruob9YWueFQhO3cQXlrBZ09S2Llm4agP2RQ52Qi+Wi9dFd7sKg9MLRZd64/RBspcV9/WqvX5c41We7Te0KnHunCEx6LLMxrFA6VecdKucpyp7scw1VQrSmzDLkL952o8J0nd7JSUd8MhyK0mK09EQ2HIrPZ+dobMi3lHovGpxIp+jRnS8Jj3y7nWyqvqG8G/bsr6OYK08k0Z0Lo2nP9anY6eWUmlZ5MJDnBQjuqcq9llmi07eQ+mUhRgGqnoyPeifGLHA7fiFAdljtdD6aT6frz54g12X912DYpQ+6i7CY8WCfJfTY7PzGeYE2wyBp2riffWZf155l7b8uoiuS0teq7WCRuWHpzF6RIfgGGt2fSN9mqk4kkK7ie/W9kWmrPABr7lgzvrqhyp6e1VK3lyn02O8+JoLWCTpelWDTOXfN4uMBMlvMrfN8wEU8YrjFcX1oBchfuO1HhO0nutQxy0B+aSqRu1x9a3uQHobFofGI8cTunxSLx5pU7ZVRms/O3cxrn3CcTSdolk77J+ZaFnGaQIPVINSntQ7mRRe3ByUCIh8EPABZyGqVrJuKJhXltNptTF/WURh8d8U4n0zQYygi1W7lT75l09nZOC/rrTxrobRx66kAt8OWKNK3K3ecNUNTNiSNpTud4IXdRdhMerJPkTuvohfpT0PRsdp4fftI7KtPJ9HK+wNvVX2Iq6puZdJYq8HnO7bAfF7UHhkXxdmmHMuD8v1xhOV+ghAybnVumcdJjXm6cvqWVO3dNG6kX3n05v8K9tBz5akGnrpmAui8v2FvuyzVlFiB34b4TFb7D5O50JalpGafH4sTxQ+6i7CY8WMjd1L8ts9r+LUknutJxY4bchftOVPiQu6lyd5wNXTZgyF2U3YQHC7lD7oIIQO7CfScqfMhdkNpctgx/iXAgd1F2Ex4s5A65CyIAuQv3najwIXdBanuJpa7LdoHcRdlNeLCQO+QuiADkLtx3osKXK3d9dWPr66ctV6ZbXz/VVzdafoWNjiYAuYuym/BgXSv3ra+f5uZue0/4Ll64ZPDRzOUrgweG+vsG+vsGgv53VI/rqxveEz76aviQZ+byFcO++NHRBCB34b4TFb475X7xwqXBA0ODrw0NHhgyyF1f3ejvGzh75lf66sYXn385fNjjPeFjYZ0+FRk+7Lmr3ddXNz688FF/38Bd7T5/i4LTCUDuouwmPFh3yv29cORG5tbW46fDhz0GuZ89c274sIcldSNzq79vYOtxPT9D3v9d5vf87eCBobNnzvGPKDidAOQu3HeiwneS3O/eud/fN8DyPXvm3OBrQ/pap+R4s9y9J3zqUp2EPv/HhUq5+umde/19A198/iUr7PSpiFqZt6PgUAKQuyi7CQ/WSXKvlKt1oR8Y2npcf+DZ3zfwm8vpzpZpKffTpyK8F7VzI3OrUq7SKl5NwVOWhiuj4HQCkLtw34kK32Fyp0zL2TO/Gj70nVx5O+lA7u3IyNwOuYuym/BgHSb3SrlKyZl9EzIkL8hdpsTbRQ25C/edqPCdJ3dKpFBypt05zNu7lDvl3HNzt/v7BgxpGeTcGaYLCpC7KLsJD9Z5cqeEzPBhz9kzv9pXN81yP30qcuzIcd5RfYhKlw313UfvCV/Q/w5XRsHpBCB34b4TFb7D5H7xwqX64nptg5IzqohbeqdZ7vNzC+rb64ZHpsOHPWxzcj2/nNOyfWx0FgHIXZTdhAfrJLmTbT/84CMSStD/zvAhD72i3k4xzXKvlKveE77BA0NB/zv0y6jzc/X3IOlD6vee8J0+FRk8MHT0yAh/hYILCEDuwn0nKnwnyf2udp/eWSTL6GsbNzK3Or/nPj+38MW/fvveOutpfm7h4oVLM5evNK/99bWNixcuXbxwSe2Ld0TB0QQgd1F2Ex6sk+TuaK1g8HYgALkL952o8CF3QX/w1g56tXYMkLsouwkPFnKH3AURgNyF+05U+JC7ILVZu2q2Q++Quyi7CQ8WcofcBRGA3IX7TlT4kLsgtdlh7WztGCB3UXYTHizkDrkLIgC5C/edqPAhd0Fqs3bVbIfeIXdRdhMeLOQOuQsiALkL952o8CF3QWqzw9rZ2jFA7qLsJjxYyB1yF0QAchfuO1HhWyn3+3c/s3Ydh96lETh29Jio0xvBSiZgpdz/6dRpaXJBvBYS+OfsnORTHbFLI2Cl3H/0n3987pcXphIpfEDABAL/9fg//PVf/0DaGY54xRKwUu7Df+vBBwTMJAC5izWdwMCtlLtA3AgZBEAABMwhALmbwxm9gAAIgICpBCB3U3GjMxAAARAwhwDkbg5n9AICIAACphKA3E3Fjc5AAARAwBwCkLs5nNELCIAACJhKAHI3FTc6AwEQAAFzCEDu5nBGLyAAAiBgKgHI3VTc6AwEQAAEzCEAuZvDGb2AAAiAgKkEIHdTcaMzEAABEDCHAORuDmf0AgIgAAKmEoDcTcWNzkAABEDAHAKQuzmc0QsIgAAImEoAcjcVNzoDARAAAXMIQO7mcEYvIAACIGAqAcjdVNzoDARAAATMIQC5m8MZvYAACICAqQQgd1NxozMQAAEQMIcA5G4OZ/QCAiAAAqYSgNxNxY3OQAAEQMAcApC7OZzRCwiAAAiYSsBiub/++g9TH//6X/73nXt3P8MHBHpE4LdXMseO/sTUEwudgYDVBKyU++uv/3Bl+d8r5So+INBrAn/e/Mubb3qtPt3QPwiYR8BKuc/emuv1KY32QYAJfPWnR+adWOgJBKwmYKXcv3r4iE88FEDABAJYvFstHPRvHgEr5W7CyYwuQEAl8NNA0LxzCz2BgKUEIHdk/AURgNwttQ06N5UA5C5IbeoaVmYZcjfVLujMUgKQO+QuiADkbqlt0LmpBCB3QWqTuVpXo4bcTbULOrOUAOQOuQsiALlbaht0bioByF2Q2tQ1rMwy5G6qXdCZpQScJ/el/Mpsdn5Re9BZT9PJ9KKW71Cny3aohbWCvpRfUVtrjKHe/nJ+ZSaZVr96oXJR39w3lnYNFvXNhXmt3bfY3kwAcrfUNujcVAIOk3ssEo9FxzPp7GQieTIQ2i7tNJ/AtCUWiXcQXyZ982QgRO2EQ5F2jfD2iXjC5w3wj5VydTKRovZv57RYdFz96oXKCznt+tXsC+3ClZfzK1OJFP+Iwr4EIHdT7YLOLCXgJLkv5VdUw07EE5n0rha3SztL+ZXVgs6nt0Huq99desei8bXCOlUO+kNU3i7tPFovcQtcKOqbJwOhWDS+rCzeu5R7cb20XdpZLehqy7xxu7RDn2/7Wi8t5VcMFy3D4LmyYV+qZtiXK6NQKVchd0ttg85NJeAkudcU6fMG2JKstkXtQdAfmkqkgv7QTGo3Q8Jy3y7t0Hp/YjwRDkUM7qsJnducTKRaLoQXctpUIjWbnY9F46zILuU+OuINhyIT44mgP5RJ36Tdg/7QyUAoHIo+Wi+pC/9aBaocDkXWGheqzoNX951MJGPR8YnxxMlAiBHxaFEgApC7qXZBZ5YScJLcK+Xq9avZ0RHvRDyhplw4Bb9d2hkd8ZK+We6z2RwrOxaNz2bn6TxfLei17eFQ5A+3drdUylWD+qlm0B9azhfoMsAVupc7qbaob/LYgv4QPw9gQS/lVzjRtJxfoQuJYfBq1JVylfct6qXaVYRGO5vNLeSQiG/9nBxyt9Q26NxUAg6Te6VcrT9FbKS5eYm6XdqZzc5PNdbdoyNekinLPRaJT4zXEziZdDYWjU/vPfzcLu0s5wszqTQrleRo+F9yLm2cTKQ4EdS93LnB8FhkOV+oXUKC/m8X1yzo2ez8xPhFrkyFdoOnb3nf2o/hUCQWqV+6sGw3MFR/hNxNtQs6s5SAk+T+aL2kZtUnE0ky9WQiOZNKP1ovPVqvL2Cb5T6VSC3kNPqQXotKbj08FjGsiFUdTCaSoyNe/nBmphdy5zsMHkAsEp9JpQ2D529VuTfe2ylk0tmgP9QhHN5XZgFyt9Q26NxUAk6Se1PWe1funOWg1IdB7pl0lqVZ1DfpW583wNcJyrq0kx1n5KmCzxugx6rNct8u7ajXDKrPFxt1bC1X7suNx8WU9lnKr9SeEFTK1ZaD56Gy3BuvzSRpu7oL10SBCEDuptoFnVlKwElyr5SrM8l6FmUqkYpF4pyWmc3maGM4FGEXc1qm9tw16A9NxBP0xJXkzrvEIvGpxK4Wp5NpvgyQCyj/o5oxk87u3S4YX4WsJ3D8IbVypVwdHfHGonHqml95bCl3NbrG5ar+In/LwXMXLPfaJYHSMtTRS784zy27tQC5W2obdG4qAYfJnXLuy/kCvUzCDlor6PTM81Hj1UPSIj/8pJQFVeBdivqmoZ2ivqnu0twIbaHLA7+rwy9QLuS05qQ5Pec0dEQt0Eh4d/qRA+Fxthx8y32X8wVDjGojKONVSFPVgs6sJuA8udtWUpl0VrU2jZNfYrHtsEUNDCt3q4WD/s0jALm3fmfuVSnPkOd5Vc2inZcjALmbpxb0ZDUByL23cn85B2GvHhGA3K0WDvo3jwDkDrkLIgC5m6cW9GQ1AchdkNp6tBx2ULOQu9XCQf/mEYDcIXdBBCB389SCnqwmALkLUpuDltg9GirkbrVw0L95BCB3yF0QAcjdPLWgJ6sJuFzuW18/1Vc3mpeBn965dyNza35uofnbra+f3sjcupG59al2r8OOW18/bf4WW2xOAHK3Wjjo3zwCrpX7p3fu/fIX5wYPDF28cMlgnLNnzvX3DRw9MjJ82DN8yPPF519yhS8+/3LwwNDga0PeE77+voGzZ37FX1XK1ffCkXY7qtVQti0ByN08taAnqwm4U+6kZu8JX7Pcc3O3+/sG5ucWSEDeE77hQx6W0fAhz8nAO/Tj3Tv3+/sG7mr36ccbmVv9fQNf/OvulcB7wuc94eMdUXAEAcjdauGgf/MIOEnud+/cv5G5tfV4Nx+ir27cyNzS11pkXbja8GGPYeV++lTk2JHjbCIyOC3e/+2zgmrzSrl69MjI6VO7/8Jq0P8z1ebk+uasDreMgg0JQO7mqQU9WU3ASXLX1zYGDwx9+MFumiXof2f4sIdd31IlzXL3nvAF/btr80q5qq9u1Bfyf6wv5D+9c6+/b0D19elTERa6KvpKudp8JWg5AGy0FQHI3WrhoH/zCDhJ7vU/ipu6Qv6lhTPnTNoZpKXceTHOcr+RuVUpV5sX46dPRYYP7yZthg97mnfcdwDtBobtlhCA3M1TC3qymoDD5F4pV70nfPVnoYc8hqedLWUBubfEInYj5G61cNC/eQScJ3dKzuybkCF/fX+5c4IeK3cXXBIgd/PUgp6sJuA8uVPyZPDAkJocb+edlnJXc+5q6pxepFGbVR+iGnLulKBHWqYdeXtuh9ytFg76N4+Aw+Sur25QQqbLNxGb5X72TP3ld1bPrtAbr9zQw1XKv1OF4UOe98K7b8sYXrOha0znx7ncCwo2IQC5m6cW9GQ1AYfJnZ5w6msblJyZuXylszWa5U7vPtIrN1tfPx0+5OHECyf0afE+c7n+8JbX5rQj9UjXGPUOoPMw8K1NCEDuVgsH/ZtHwElyp8Xy7zK/J1NcvHBp3+RMs9wr5eqHFz7q7xsYPDDU3zcwfNijvimvr20MH/bwtx9+8JFqpQ47qtVQti0ByN08taAnqwk4Se5bj41/KEZf3eicGGlXYevx07t37qt/eED10Reff3n3zv2WLetrGx12VBtB2YYEIHerhYP+zSPgJLnbUBYYkrMIQO7mqQU9WU0Achf0B2+dJeJejBZyt1o46N88ApA75C6IAORunlrQk9UEIHdBauvFWthZbULuVgsH/ZtHAHKH3AURgNzNUwt6spoA5C5Ibc5aZfditJC71cJB/+YRgNwhd0EEIHfz1IKerCYAuQtSWy/Wws5qE3K3Wjjo3zwCkDvkLogA5G6eWtCT1QQgd0Fqc9YquxejhdytFg76N4+AlXL/8+ZfenECo00QaEcAcjdPLejJagJWyv3+3c/anYTYDgK9IPD66z+0+oxD/yBgEgEr5X7s2DEs3nuhMLTZkkDy48smnVXoBgRsQMBKuY+OePEBATMJHPqbwzY46TAEEDCDgJVyNyM+9AECIAACIglA7iKnHUGDAAi4nQDk7vYZRnwgAAIiCUDuIqcdQYMACLidAOTu9hlGfCAAAiIJQO4ipx1BgwAIuJ0A5O72GUZ8IAACIglA7iKnHUGDAAi4nQDk7vYZRnwgAAIiCUDuIqcdQYMACLidAOTu9hlGfCAAAiIJQO4ipx1BgwAIuJ0A5O72GUZ8IAACIglA7iKnHUGDAAi4nQDk7vYZRnwgAAIiCUDuIqcdQYMACLidAOTu9hlGfCAAAiIJQO4ipx1BgwAIuJ0A5O72GUZ8IAACIglA7iKnHUGDAAi4nQDk7vYZRnwgAAIiCUDuIqcdQYMACLidAOTu9hlGfCAAAiIJWCx375v/eP/uZ5VyFR8QAAEQcBOBr/70KPnxry28rFgp92PHfvJ/N/+fm6YTsYAACICASuCfs3NW+d1Kuc/emlMpoAwCIAAC7iPw00DQEr9bKfc/b/7FfROJiEAABEBAJZD6+LI4uavxowwCIAACriQAueOZKgiAAAi4kADk7sJJdeUyBEGBAAi8EAHIHXIHARAAARcSgNxdOKkvdHlHZRAAAVcSgNwhdxAAARBwIQHI3QGTul3a2S7t0OKiuF565asMtf1X3viLNljUNxe1B93sZeaw1b56MQXdxNvrOmqMve7LZQy/D7rO+85mcy89F5B7V3Iv6pvTyXQsEp9KpB71QK+d5+92TptKpCrlalEvjY54O1d+iW+X8iux6PhL7PjKdynqm7FovEvCk4lUJp195WNQG5zN5hbmtUq5ejunMaKXmIJF7cFsdl5t2YblTDr7ojxXC/pUIkWfTDrb5cRVytVYJL6cL1TK1YWcZn8y+07WS6DjNtVDizdyYSaZfmk+kPv+cq9dWoP+0EwqvZwvLOQ0nzewVtANJzxPRi8K9pF70B+ic7IXYVbK1clEkmTaKO/jbhPkvqg9aJ7rl5D7WkHnuF4O3WQi1WULS/mVk/5Ql71k0llaN1TK1Zcw1FJ+xecNLOS0hZw2k0r7vIEu/c5yX86vLOdXuhytbau9BDqOpbPcK+Vq0B/qkiq3SQXIfX+5G86W+kReza4V9MlE8mQgdDtXX9k1ltWbs9l5df1S1DeX8itL+ZVMOtvuzKRd1G+3Szu0cbVxCaGrSIeV+1pBXyvotMtSfoV3Vw8IGsNsdp433tUerDb2Wivo6sr97p7OKuWqYeS3Gxe26WSafKceSUV9k45vbr9Srt7VHhgCv53TqKY6Em6nqG/6vAH68a72IBaNT4wnlvbOfB4Md8Fy3y7t3M5plLni8Jke8WkeDHW0nF/hBtWppH75W/UMbJY7MVzIaRRvyzFwIPwtHRu1s3e7tLOoPVjKr/Aa7fZeUyqNqUSKG2mmQTUJr88b4Fi4OwZCNSvl6nJ+ZWI8EYvGqVmaQQKlZsaKuvHA5hYMp8ZEPMEhNB9y6hHFcqfZodOHoyOevJGDpZW+4aDiwTABw0nH88I1+XzhqVcPEo6dx0asuDKNRz3TW8qdyXODLS2hHlqVcpVOZHWXTDo7nUzz4LsvQO77y327tOPzBvioJbgk93AoutCQe1HfDPpD169mZ7PzjeVtfTGylF8ZHfHOpOo3VkF/yNBCpVydTl6ZGE8s1G/54zOp3fkLhyK8C81x55V7Jp2lxmvG9HkDVK4debUy+W4hp50MhGhtdTKwu6aLReI+b4BMzXLPpG+GQxHai8oLOW1iPEFjo7sWurCpRxjFPpudn83OnwzsrjI4NNIH1R8d8caicWozHIqojVTK1cW60HezQ8v1TFFd7nSjMJvNqSHQCEnutXI4FLl+dTc/o9KjJSHxoanxeQOGdeJsdp4unKsFfXTES99O790L83pZPQOb5W7ogsZD08Fj2Ls8148Tmt9wKELxFvWSzxuIRcfpCJlMJKcSKaJEeRKiMZVIEY1F7QHTMGCk/CGtpkkl6mH5L40UE2Pfk/v4opanlTtXZlA8uZl09mQgROS5hWa50zKllikOhyKGQy6TvknDnkwkG+3X0zKsRZUw30/czmmjI14+rZrB8ki4sO8uRX0zHIrw4bp3tNdPIsNBwmOj+0gKjeGrp5hak0cSi9RP6oWcxuc+w1SPDTXw5l0q5epqQe/+Vox7r5SrkPv+cqeTJBYd93kDas5dnZXJRJLt3NgeJ7mrtuJlKU9A0B+i86qxdqufYKrgbtfFenHflbt6YE0mUnwJCY9F6HDk5ad6ixeLxLkmyZ3OPTrWt0s7oyNeWqpQmba3TMuo67XZbI4uSItannYv6iU+NEdHvGuFdQqf9cE0+JSmLbwwp2HzjhPxBCmPKqhmb0kvk84SRjpFOWrqhYdXf6YSjdMSKTwWoe66l7vaBSc6YpE4TQGH1riQ717AeLQkd+ZQ0wHRVtXJI6lVC49FODnWKH8nraHuNZ1M82CWW6VreGDkWa7M3U0mkkxMPbpotJSWoSNwIp7gS7t6yPGBpB48HAIfverZxKMybGTI08l0u8cD++6yVtCZXvMEqQcJj02V+3J+he9cm6PgSayUqz5vgO6WGu8I1M9uLqgN8oDrE7e39qLLObVGJ6DacpdlyL0ruRPNxv1pjq3Es6I+IGpMYX0hZpB7yxla1B4E/aFYpO4UUiEtB4L+EH1Ii/uu3PlA53OShkRmqT+ljMTpw2caH9Z8hzE64uV26J6Dh8F7qecnH2F8i81bKuXqWkHnTlW5872tOgDaUT2X6Oin8RjQ8Vp7MpGqJXnVPG9LemwKtU11qJTTbAi9vkTaLu3wOcY81bluuXJXtcgYOUYeg3qLzTdMfIGhUdW3N+YrHIowOh5Jje3oiJenpr5I/+56XJU7D4CSP51HrvLn7sJjEbodrFHyeQMcGg+VNmbSWT5IdhdDTYec2jsfM9ypSphxtdyorvfVeaTyvrtsl3borpRuXvnqy6HxqoLHprp4u7RTWwHU77oa9750nVBr8pAW5utrdpoCulo3Rl6/OY5F4kF/iLrmAfOdt3ruU2sqOm5/3wLkvr/cF7UH6vnDqyGelUq5OhFPcB2+AvPZS4d7uxlaK+jXr2Zj0fpin82lztz3lHssEv/Drd1XNfjhjHra04CX84WTgRCtSlYLevN9Bq2gedXDI5yIJ+j+gwzCa/yWK3dV7rwXNcWnNP3I55h660AnNq2vJxOpifEEZWyo05b01Ga5TR58IzmWbizb6wtqWryrpjacgeRWdffmNS9rgiHzGNQR8uGhyp2CJUqqptm2tCRkjIaR0KVavSTwupvyTob6PDCDMbm78FjEME1qC+oIZ5JpvnlVDzmWPhfUxRBrUT2beFQtNxqGqo7H8JoDt6Puom5UJ4hnjQ8SHpsqd/UevfkSZRgMrXImxhN0z7Gw99qb2iDHyHfqhkYMixvDtx1+hNz3l3v9fnYvlVyTCKc7avmHcChKcGuZd85Wc5KablrpPMykb3KKhnahVD7lZOtptcYdWe1+lpeiawW9y5y7elzyNYYPXE7o03qcxsPfqncYqig5UdhY6exltFud6pn07pVpu7RTT6k3FpJ8T1rP9uy9vDE64qWIao+q1FOdgDSO8voVjj6TiRQ/R+IQKGtJuuGTkM+3lvTUk5l34V7oWRk/U6HVE+uMHcdn4PeUuzpCPiTayV1Fp6ZE+ABrOOsmrwopKDVFqx66mfRNvmhx+LPZ+YnxBP3Y0mU0uXvXzpzhoqLKnY5nWhzUk9qN9cR3Drm9B0s0iYY1L5Ghl74nxhM0VBW7Oo88VPWZJ0Wx7y68OKNh0OHKDaq3d7PZeVpy0ftyVHMivvsIqvbyAt/IqrvTMIgG4ZrN5ujcb2QI67TVrnnAdMtIAIv6Jp/ItdwOe4YnrpsC5L6/3OkZfTgUpTtTfnZHU84r3OtX689kgv7QxHiCToba0//arNCOtZS94cSgDDvfX/ODPnoCU7+hi47TTC9qD6Ybj1uLeim4QxwLogAACGtJREFUJ0qeXXo0RD9OJ9OqmKi8VtCD/lDjYeZ4LDpOJ9VkIsU1Vws6ZzOvX81SgI3nTlG6JeeF/2w2Nzri5cUgj2EmWX8NLugPqTVpC2EhIKMj3hocwmh4uEerfvWRHZ3t5PeivjkRTxi64MeetcbDoejiJ/W0ZjO92ew80aNFevPgaXeaHZpTGi3VJ0qL2gNG1HIKWnbBkNUxXL9af9ZNxwk/UFUv/FyhthCuHTw0mNpLmaMjXqKxXdqhZ5L0DJBngQotD0t6YMtx8S50bPBdI8NRD6SZZJqO0lh03NDCakFXRz6bzZGUDYccPcDgIyoWHY9Fd99zV49ePoomE0niqWJXGfJezVbddxd1GPU7v8ZFiBtUD5JasOFQ/RQIh6IT47u3p+Rl4slLGXV3ZjubzTE3VjY1GIuOTyWSmcZbAOqAKU9bO8DCoSjt0u5unnvpUIDcu5J7B4IdvuL77g51RH3VvFo3hN98rhoquOBH9qP6cNUFcVkSQiwS5zWKJQMwoVNOpb5oX5A75N5DAobDcV+5N9ZKkeZbHEM7zv2RltVTjYwT39Q7NxxrR06/H2DtGHrdeyZ9k1MFL9oX5N5DtfELji86K26tzy/5dQiwqG9yhqpDNUd/tajlu0Hh6Bgx+FdCoDl72X2zkHsP5d79NKAmCIAACLxaApA75A4CIAACLiQAubtwUl/t9R+tgQAIOJEA5A65gwAIgIALCUDuLzapNzK3th4/deJlHGMGARAQRQByfzG59/cN3NXuizpEECwIgIATCUDu3cpdX9345S/O9fcNBP3v6Ksb6mRvff105vKV06cip09Ffpf5vfpVpVz99M69X/7i3OlTkV/+4pxhx+aa1MjFC5cMNbe+fnrxwiVqpGUXtOPM5SuGHQ1d4EcQAAEhBCD3ruSur24MHhg6emTk9KnI8GGPYf1+9O9GBl8bOnvm3HvhSH/fwHvhb/9S+fzcQn/fgPeE7+KFS8OHPcOHPO3keyNzi64cXJPzP1tfPx0+5Bk+7OEuZi5f4QP04oVL7XbkOiiAAAhIIwC5dyV3cjrb1nvC5z3ho2MlN3dbdT2plg1+9MgIu37r8dPBA/VrQMuDbPiQx1Dzww8uUU3yvr62e7tw9sy5wQNDPBh1R32tfhFS1d+yL2wEARBwPQHIvSu5qzavlKsXL1waPDBEBweZlw+Uf/uswK7fevy0v29g/o8L/C1dJPhHLqh70cag/2d8/VDL9X++7s79/r6BLz7/knI+3B3tePTISND/DreMAgiAgEwCkHtXcqfFMq/H1WOFVMtPWWcuX+nvG6BVdrOy1auC2sind+6xr2m7ehnwnvCdPvVtqkdf3ejvG7iRuVUpV+m+QR3Y6VMRviqoXaAMAiAgigDk3pXctx4/pVT76VORT7V7hkPkwwsfUdbbe8I3+NoQP/AkZbP3acnf3zdg2J0X4AZHDx/2UE3K9fNeqtx3MzbKA171qsC7oAACICCNAOTeldzpsLiRuXX0yEh/34DhuWh9Xf/a0OlTkaD/nf6+Ac6Vvyq5Dx/2tFu5Q+7SzljECwJdEoDcX0DuxPTunfvDhz2c+jA87VSzNC3TMi+xcu+Qlmkpdx5blwcBqoEACLiPAOS+v9y3HtffMeeXVSrlKiXW6X2V5hz34IGhixfqL7qo+RM6dM6eOXfsyPHmw4guA+qjV/UhatD/M/UZqXrNoDI9XKVmDc9+m/vCFhAAAQkEIPeu5K4mW5rlzm/OsND5ZUTDu48dXmUZPDDE+ZxKuaq+4EiPYfndR1qt04/0Qo5hx3ZvW0o4oBEjCIAAEYDc95d77Z/3DPrfoffHP9XukWr5nXTKw9CD1vm5haN/NzJ82MPL/JlU/eWZmctXPtXunT1T/wVXdZWtHoXU7O8yv+ea3Ai9IB/0v/Opdm9+bkH1fqVcpTd5aMf3wpHB14Z4R7V9lEEABEQRgNy7kvvW46dnz5yjF2aGD3s+/OAjXkfTi+feE77+voHB14a8J3wGt3544SPe8TeX0x0OL+7Ce8I3P/ft2/GVcvWLz7/kLgy909gGXxuiX4X94l/r77/jAwIgIJwA5P4CHqQcuvrCovCjB+GDAAjYlgDk/gJypyer6prdtvOKgYEACAgnALm/gNyFHysIHwRAwEEEIHfIHQRAAARcSAByd+GkOmhxgaGCAAj0iADkDrmDAAiAgAsJQO4unNQeLQTQLAiAgIMIQO6QOwiAAAi4kADk7sJJddDiAkMFARDoEQHIHXIHARAAARcSgNxdOKk9WgigWRAAAQcRkCj3rx4WHTRDGCoIgAAIvASBC+c/OGjFf39lRae7faY+vvwSpLALCIAACDiIwLGjxyzRrJVy/9F/+fFSfgUfEAABEHArgUsf/o8f/PUPxMn9xz86jg8IgAAIuJvA8N96xMndkoDRKQiAAAhIIGBlWkYCX8QIAiAAApYQgNwtwY5OQQAEQKC3BCD33vJF6yAAAiBgCQHI3RLs6BQEQAAEeksAcu8tX7QOAiAAApYQgNwtwY5OQQAEQKC3BCD33vJF6yAAAiBgCQHI3RLs6BQEQAAEeksAcu8tX7QOAiAAApYQgNwtwY5OQQAEQKC3BCD33vJF6yAAAiBgCQHI3RLs6BQEQAAEeksAcu8tX7QOAiAAApYQgNwtwY5OQQAEQKC3BCD33vJF6yAAAiBgCQHI3RLs6BQEQAAEeksAcu8tX7QOAiAAApYQgNwtwY5OQQAEQKC3BCD33vJF6yAAAiBgCQHI3RLs6BQEQAAEeksAcu8tX7QOAiAAApYQgNwtwY5OQQAEQKC3BCD33vJF6yAAAiBgCQHI3RLs6BQEQAAEeksAcu8tX7QOAiAAApYQgNwtwY5OQQAEQKC3BP4/w+laBEVl4toAAAAASUVORK5CYII=;" parent="1" vertex="1">
          <mxGeometry x="570.03" y="1670" width="124.28" height="130" as="geometry" />
        </mxCell>
        <mxCell id="LCPFL02DWOrMatiKx--p-47" style="edgeStyle=orthogonalEdgeStyle;rounded=0;orthogonalLoop=1;jettySize=auto;html=1;exitX=0.5;exitY=1;exitDx=0;exitDy=0;entryX=0;entryY=0.5;entryDx=0;entryDy=0;" parent="1" source="LCPFL02DWOrMatiKx--p-43" target="LCPFL02DWOrMatiKx--p-8" edge="1">
          <mxGeometry relative="1" as="geometry">
            <Array as="points">
              <mxPoint x="910" y="2040" />
              <mxPoint x="340" y="2040" />
              <mxPoint x="340" y="510" />
            </Array>
          </mxGeometry>
        </mxCell>
        <mxCell id="LCPFL02DWOrMatiKx--p-43" value="&lt;p&gt;&lt;span style=&quot;background-color: initial;&quot;&gt;&lt;b&gt;Logging&lt;/b&gt;&lt;/span&gt;:&lt;/p&gt;&lt;p&gt;&lt;span style=&quot;background-color: initial;&quot;&gt;Record all transactions and analytics data for future review and strategy optimization&lt;/span&gt;&lt;/p&gt;&lt;p&gt;&lt;/p&gt;" style="rounded=1;whiteSpace=wrap;html=1;verticalAlign=top;" parent="1" vertex="1">
          <mxGeometry x="790.03" y="1880" width="240" height="100" as="geometry" />
        </mxCell>
      </root>
    </mxGraphModel>
  </diagram>
</mxfile>
